<svg width="799" height="186" viewBox="0 0 799 186" fill="none" xmlns="http://www.w3.org/2000/svg">
<path d="M274.802 154V32.9H297.292V133.413H341.407V154H274.802ZM436.844 67.5V154H415.392L415.219 137.046C410.202 148.983 399.649 155.73 385.29 155.73C365.222 155.73 352.766 142.582 352.766 120.957V67.5H374.391V116.805C374.391 129.607 381.657 137.219 393.421 137.219C406.742 137.219 415.392 127.877 415.392 112.653V67.5H436.844ZM458.9 154V67.5H480.525V83.589C485.369 72.344 494.711 65.77 506.994 65.77C519.277 65.77 528.446 72.344 532.771 83.589C537.961 72.344 547.822 65.77 560.797 65.77C578.962 65.77 590.553 78.745 590.553 99.678V154H568.928V103.138C568.928 91.201 563.046 84.454 553.185 84.454C542.286 84.454 535.539 92.412 535.539 106.079V154H513.914V103.138C513.914 91.201 508.032 84.454 498.171 84.454C487.272 84.454 480.525 92.412 480.525 106.425V154H458.9ZM654.225 155.73C626.199 155.73 606.131 137.046 606.131 110.75C606.131 84.627 626.199 65.77 654.225 65.77C682.251 65.77 702.146 84.627 702.146 110.75C702.146 137.046 682.251 155.73 654.225 155.73ZM627.929 110.75C627.929 126.147 639.001 137.392 654.225 137.392C669.449 137.392 680.521 126.147 680.521 110.75C680.521 95.353 669.449 84.281 654.225 84.281C639.001 84.281 627.929 95.353 627.929 110.75ZM758.697 155.73C732.92 155.73 714.236 141.717 713.717 120.092H736.034C736.034 131.337 745.203 138.776 759.043 138.776C769.942 138.776 777.381 134.105 777.381 126.666C777.381 119.573 770.98 118.189 766.828 117.67L746.76 115.075C736.034 113.691 721.156 109.366 721.156 92.758C721.156 76.669 734.996 65.77 756.448 65.77C778.073 65.77 791.048 74.766 793.297 90.682H771.153C769.596 84.973 764.06 81.859 756.275 81.859C748.144 81.859 742.089 85.492 742.089 91.547C742.089 97.948 748.49 99.332 752.469 99.851L772.191 102.273C783.609 103.657 798.833 108.501 798.833 125.628C798.833 143.62 782.744 155.73 758.697 155.73Z" fill="black"/>
<rect width="186" height="186" rx="93" fill="#007AFF"/>
<path d="M84 26H103V159H84V26Z" fill="white"/>
<path d="M27 102V83H160V102H27Z" fill="white"/>
<path d="M39 52.4375L52.435 39.0025L146.48 133.048L133.045 146.483L39 52.4375Z" fill="white"/>
<path d="M133.045 39L146.48 52.435L52.435 146.48L39 133.045L133.045 39Z" fill="white"/>
</svg>
