<?xml version="1.0" standalone="no"?>
<!DOCTYPE svg PUBLIC "-//W3C//DTD SVG 20010904//EN"
 "http://www.w3.org/TR/2001/REC-SVG-20010904/DTD/svg10.dtd">
<svg version="1.0" xmlns="http://www.w3.org/2000/svg"
 width="673.000000pt" height="673.000000pt" viewBox="0 0 673.000000 673.000000"
 preserveAspectRatio="xMidYMid meet">
<metadata>
Created by potrace 1.14, written by Peter Selinger 2001-2017
</metadata>
<g transform="translate(0.000000,673.000000) scale(0.100000,-0.100000)"
fill="#000000" stroke="none">
<path d="M3149 6726 c-2 -2 -41 -6 -85 -10 -127 -9 -310 -37 -451 -70 -343
-78 -733 -239 -1008 -414 -11 -6 -27 -15 -35 -19 -8 -4 -17 -9 -20 -12 -3 -3
-39 -28 -80 -56 -244 -162 -524 -418 -705 -645 -33 -41 -63 -77 -66 -80 -3 -3
-42 -57 -86 -120 -344 -492 -542 -1033 -601 -1640 -9 -100 -9 -483 1 -590 10
-111 23 -217 32 -250 0 -3 4 -27 9 -55 26 -171 107 -452 187 -655 53 -131 179
-381 260 -511 364 -586 887 -1041 1517 -1318 176 -77 473 -175 601 -197 14 -3
42 -9 61 -14 19 -5 55 -12 80 -15 24 -4 47 -8 50 -10 3 -1 30 -6 61 -9 31 -4
67 -9 79 -11 138 -27 670 -26 830 1 14 2 61 8 105 14 199 25 595 137 780 220
117 52 296 140 360 177 131 76 333 211 410 274 236 195 377 332 505 488 19 24
40 49 47 56 7 7 51 66 98 131 47 66 89 124 93 129 46 57 218 378 274 510 9 22
27 63 38 90 19 43 62 169 115 335 28 85 73 311 99 490 21 150 29 574 13 725
-19 185 -30 253 -62 415 -46 232 -168 570 -293 815 -83 163 -275 466 -337 531
-5 6 -23 29 -40 50 -120 153 -333 368 -490 493 -38 31 -72 58 -75 62 -15 17
-220 156 -313 213 -407 246 -887 411 -1342 461 -33 4 -73 9 -90 12 -34 5 -521
13 -526 9z"/>
</g>
</svg>
