<svg width="1266" height="959" viewBox="0 0 1266 959" fill="none" xmlns="http://www.w3.org/2000/svg">
<path d="M277.549 2.2811C275.548 5.5211 275.682 23.1611 277.682 27.0011C278.749 29.1611 280.083 30.0011 281.95 29.7611C284.484 29.4011 284.75 28.5611 284.884 18.1211C285.017 11.8811 284.617 5.4011 284.084 3.7211C283.017 -0.118897 279.416 -0.958897 277.549 2.2811Z" fill="#9CA3AF"/>
<path d="M217.667 51.1207C218.2 53.6407 228.87 58.8007 239.539 61.8007C251.142 65.0407 255.143 61.2007 244.873 56.6407C241.673 55.2007 238.472 54.0007 237.805 54.0007C237.138 54.0007 234.604 53.1607 232.204 52.0807C229.803 51.0007 225.535 49.8007 222.468 49.5607C217.8 48.9607 217.133 49.0807 217.667 51.1207Z" fill="#9CA3AF"/>
<path d="M806.477 69.8392C803.676 71.8792 798.875 83.0392 798.875 87.5992C798.875 90.5992 799.408 91.1992 802.209 91.1992C804.876 91.1992 806.077 89.9992 808.744 84.8392C813.012 76.4392 813.945 72.1192 812.078 70.0792C810.211 68.0392 809.278 68.0392 806.477 69.8392Z" fill="#9CA3AF"/>
<path d="M737.793 74.6398C735.526 76.6798 738.06 79.7998 749.663 90.4798C756.731 96.9598 760.732 99.7198 762.066 99.2398C765.266 98.1598 764.733 95.2798 760.332 89.5198C752.197 78.8398 741.127 71.6398 737.793 74.6398Z" fill="#9CA3AF"/>
<path d="M346.365 76.9215C323.959 81.8415 301.154 96.7214 291.152 112.801C278.215 133.561 276.615 162.481 287.417 184.201L290.485 190.681L286.217 193.321C274.081 200.761 268.479 222.001 275.548 234.121C280.749 243.241 292.619 251.281 299.82 250.561C303.154 250.201 302.754 249.841 295.953 246.361C282.216 239.401 276.748 231.001 277.682 218.401C278.482 209.641 282.083 201.961 287.551 198.121C292.352 194.641 301.021 194.761 306.889 198.361C314.49 202.921 316.624 208.441 317.425 226.321C318.225 244.561 319.958 248.401 327.027 248.401C332.361 248.401 341.697 240.121 347.432 230.161C349.699 226.321 351.833 223.201 352.233 223.201C354.1 223.201 394.11 245.881 393.843 246.721C393.71 247.321 391.976 251.761 390.109 256.561C382.64 275.401 384.507 289.681 395.843 299.881C399.844 303.481 404.645 306.361 408.78 307.561C417.582 310.321 429.985 310.201 437.187 307.201L442.921 304.921L444.388 308.161C446.789 313.441 450.79 327.841 450.79 330.841C450.79 336.001 448.389 338.401 443.321 338.401C437.987 338.401 433.586 336.481 422.383 329.761C410.914 322.801 407.98 324.361 418.782 331.681C433.052 341.161 443.321 344.761 450.123 342.481C453.457 341.281 456.125 335.521 456.125 329.401C456.125 324.361 456.391 324.001 458.658 325.201C467.06 329.161 481.731 324.481 494.134 313.921C502.936 306.481 503.603 303.001 497.601 295.561C491.733 288.241 480.13 280.801 474.662 280.801C472.262 280.801 473.462 282.721 477.33 284.761C483.865 288.241 494.4 297.361 496.134 301.201C497.735 304.561 497.601 305.161 494.667 307.921C485.198 317.041 470.528 323.521 463.326 321.721C459.059 320.761 455.324 316.561 453.991 311.401C453.057 307.921 453.057 307.801 455.724 309.841C459.192 312.601 464.793 312.601 467.994 309.721C469.461 308.401 471.595 307.201 473.062 306.961C474.396 306.721 475.596 305.281 475.863 303.721C476.263 301.681 474.662 299.521 469.594 295.201L462.926 289.561L466.127 285.481C470.661 280.081 470.261 276.361 464.393 268.081C454.658 254.641 435.186 242.401 423.583 242.401H418.115L429.185 247.321C441.588 252.721 458.258 265.801 462.126 273.241C464.927 278.521 464.126 280.201 453.857 290.401C444.788 299.281 433.319 304.801 423.583 304.801C411.58 304.801 397.977 297.241 393.843 288.121C389.975 279.721 392.242 263.641 399.044 251.641C400.511 249.001 401.311 245.761 400.911 244.321C400.378 242.641 393.576 238.321 379.973 231.121C355.7 218.161 354.5 217.321 355.567 214.081C356.234 211.921 357.701 211.441 365.436 210.721C387.308 208.921 443.988 196.921 451.723 192.481C455.324 190.441 453.991 188.641 465.994 212.521C476.93 234.361 482.664 243.721 491.6 254.281C497.735 261.361 498.135 262.321 495.067 260.881C490.933 258.961 484.665 258.601 483.464 260.281C482.664 261.601 486.265 265.201 488.266 265.201C489.066 265.201 492.267 266.761 495.467 268.801C501.335 272.401 506.803 273.481 506.803 271.081C506.803 270.361 509.204 271.681 512.138 273.961C519.473 279.601 531.343 285.121 540.812 287.401C550.014 289.561 568.952 289.801 579.087 287.881C590.957 285.721 607.228 277.921 616.83 269.881C633.1 256.201 640.035 236.641 634.301 221.041C631.767 214.441 625.765 207.601 622.298 207.601C619.23 207.601 619.63 210.601 623.498 216.481C635.634 235.201 624.965 259.681 598.292 274.081C587.489 279.961 586.022 279.481 596.025 273.481C606.294 267.241 613.629 259.681 619.63 248.761C624.165 240.841 624.432 239.521 624.032 231.361C623.365 221.641 620.164 214.441 613.229 207.961C609.228 204.241 609.228 204.121 610.828 198.001C621.231 159.121 571.886 130.441 500.802 133.561L486.132 134.281L494.8 132.361C507.337 129.601 542.679 129.481 556.549 132.241C578.687 136.681 597.759 146.521 607.494 158.281C613.362 165.601 618.964 178.801 619.097 185.881C619.23 189.121 618.03 193.801 616.43 197.041C613.496 203.281 613.762 203.881 618.697 200.881C625.365 196.681 627.099 186.721 623.365 175.081C614.829 149.161 592.157 132.961 554.815 126.001C530.542 121.441 493.734 123.961 470.928 131.881C463.726 134.281 461.459 134.281 461.459 131.641C461.459 128.641 449.99 113.161 441.721 105.361C425.584 90.1214 408.78 80.5215 390.109 76.2015C379.173 73.6815 359.301 74.0415 346.365 76.9215ZM327.96 90.4815C327.694 90.7215 324.76 93.0015 321.425 95.4015C301.287 110.401 291.418 128.161 288.217 154.921L287.151 165.001L286.884 153.001C286.75 139.441 288.618 131.641 294.886 120.241C299.554 111.721 311.957 99.1215 321.025 93.6015C326.36 90.4815 329.827 88.9215 327.96 90.4815ZM460.392 295.921C460.792 296.281 459.725 297.841 457.992 299.401C456.258 300.961 454.658 303.481 454.658 305.041C454.524 306.841 454.257 307.081 453.857 305.761C453.591 304.681 454.257 301.921 455.324 299.521C457.191 295.441 458.792 294.361 460.392 295.921Z" fill="#9CA3AF"/>
<path d="M1008.93 99.5995C980.787 103.079 960.249 120.599 957.048 143.399C956.381 148.559 956.514 148.919 957.848 146.399C958.648 144.719 961.049 140.039 963.183 135.959C971.585 119.519 988.789 108.239 1009.99 105.359C1060.01 98.5195 1098.02 141.119 1087.61 192.719C1083.34 213.959 1086.28 224.039 1101.62 241.199C1114.42 255.599 1118.69 269.159 1114.42 282.479C1111.62 290.999 1105.22 297.599 1095.88 301.319C1089.75 303.839 1086.81 304.199 1071.61 304.199C1054.67 304.199 1054 304.079 1045.34 300.239C1034 295.319 1023.86 285.599 1017.33 273.359C1011.73 262.919 1009.99 261.479 1008.79 265.799C1006.79 273.119 1016 289.319 1027.33 298.199C1053.07 318.359 1095.08 320.039 1117.62 301.679C1130.29 291.359 1134.16 273.239 1126.56 259.199C1124.69 255.479 1118.15 247.439 1112.29 241.199C1100.15 228.239 1094.81 219.599 1093.88 211.319C1093.61 208.079 1094.28 199.439 1095.48 191.879C1099.22 168.599 1094.55 146.879 1081.88 129.479C1064.94 106.319 1039.2 95.7595 1008.93 99.5995Z" fill="#9CA3AF"/>
<path d="M868.493 144.118C837.286 149.038 810.079 165.718 806.211 182.038C805.011 187.318 805.945 186.958 810.079 180.718C820.882 164.038 850.489 149.878 877.962 148.078C911.837 145.918 937.576 160.798 957.048 193.678C970.384 216.358 975.452 236.518 975.452 268.198C975.452 298.318 971.985 313.678 963.449 320.398C960.915 322.318 957.848 323.998 956.648 323.998C955.447 323.998 951.58 321.238 948.246 317.998C944.911 314.638 941.711 311.998 941.177 311.998C939.31 311.998 940.377 317.638 943.444 323.518C949.446 335.038 957.714 337.798 966.25 331.078C976.519 322.918 980.653 310.798 982.787 283.438C984.654 260.038 981.854 234.958 975.319 216.238L973.052 209.998L977.052 206.278C980.653 202.918 980.92 201.838 981.32 191.998C981.854 182.518 981.454 180.598 978.119 173.998C973.452 164.758 963.983 156.718 954.514 154.198C946.512 152.038 942.511 152.038 936.243 153.958C931.975 155.398 930.908 155.158 923.573 151.678C919.172 149.518 912.237 146.878 908.236 145.798C899.3 143.518 878.095 142.558 868.493 144.118Z" fill="#9CA3AF"/>
<path d="M718.187 180.119C708.185 181.439 695.115 185.279 686.313 189.239C675.91 194.039 661.507 207.719 655.772 218.399C648.17 232.319 646.437 240.479 647.103 257.399C647.637 269.999 648.304 272.999 651.905 281.399C659.907 299.639 675.91 314.519 692.048 318.839C701.783 321.359 719.521 320.519 729.523 317.039C736.992 314.399 745.394 309.119 744.06 307.919C743.66 307.559 738.859 308.639 733.391 310.319C718.854 314.879 702.183 315.479 691.514 311.879C675.91 306.599 660.44 288.479 655.505 269.759C651.505 254.639 654.038 237.239 662.174 222.599C671.109 206.399 684.712 195.959 704.584 189.959C714.453 187.079 717.387 186.719 734.191 186.719C751.929 186.719 753.662 186.959 768.866 191.279C789.004 196.799 807.009 200.399 815.544 200.399C823.146 200.399 832.215 198.479 832.215 196.799C832.215 195.239 828.614 194.639 814.877 193.919C807.809 193.439 796.739 191.519 786.204 188.879C748.461 179.399 735.258 177.719 718.187 180.119Z" fill="#9CA3AF"/>
<path d="M431.454 223.199C431.054 223.919 433.454 225.479 437.055 226.919C449.991 231.839 451.592 232.919 458.127 241.439C461.861 246.239 465.462 250.079 466.129 250.079C468.929 250.319 468.129 244.679 464.395 237.959C459.994 230.279 454.793 225.239 449.058 223.319C444.257 221.639 432.521 221.639 431.454 223.199Z" fill="#9CA3AF"/>
<path d="M904.769 244.68C902.502 245.88 899.301 248.52 897.834 250.56C894.366 254.88 890.899 266.28 890.899 273.48V278.76L879.296 278.04C867.427 277.32 855.69 274.44 848.622 270.48C846.621 269.28 841.687 265.68 837.819 262.56C833.818 259.44 829.551 256.8 828.217 256.8C826.883 256.8 823.683 259.32 821.015 262.68C811.68 274.08 793.675 281.76 769.803 284.52C756.2 286.08 743.93 284.88 728.86 280.68C714.856 276.72 708.188 278.28 719.258 282.96C731.127 288 747.798 290.88 765.669 290.88L782.473 291L782.339 294.6C782.073 299.88 786.74 300 790.208 294.96C793.809 289.8 798.076 288 807.279 288C813.947 288 814.881 287.76 814.881 285.72C814.881 284.4 814.214 282.96 813.547 282.6C812.747 282.12 815.281 278.88 819.415 275.28C823.416 271.56 827.15 267.6 827.55 266.28C828.751 263.04 829.551 263.28 835.952 269.4C846.888 279.84 861.692 285.84 877.296 286.08C883.564 286.2 887.298 285.72 887.965 284.76C888.498 284.04 890.499 282.84 892.366 282.12C895.567 281.16 895.967 280.2 896.767 272.4C898.234 258.24 904.102 249.24 913.037 247.68C921.306 246.36 932.242 254.64 935.043 264.36C936.91 271.44 935.976 285.12 932.909 293.16C930.375 299.52 923.973 306 920.239 306C916.772 306 914.504 308.76 916.505 310.56C918.906 312.72 924.374 312.24 929.041 309.72C938.377 304.56 943.578 290.64 942.645 272.52C942.111 260.64 940.244 255.6 934.376 249.84C927.174 242.64 913.037 240.12 904.769 244.68Z" fill="#9CA3AF"/>
<path d="M429.852 270.841C429.319 272.041 429.986 273.481 431.72 274.681C434.253 276.601 434.253 276.721 431.853 280.201C428.652 285.001 428.652 291.121 431.986 292.801C436.654 294.961 440.122 294.121 445.723 289.321C450.924 285.001 451.191 284.401 449.857 281.641C448.257 278.401 435.054 268.801 432.253 268.801C431.453 268.801 430.386 269.641 429.852 270.841Z" fill="#9CA3AF"/>
<path d="M745.129 298.44C739.928 300 738.861 300.84 739.127 302.88C739.394 304.92 740.328 305.28 743.528 305.04C745.796 304.8 751.397 304.56 756.198 304.44C764.067 304.2 764.867 303.84 765.267 301.44C766.067 296.52 756.465 295.08 745.129 298.44Z" fill="#9CA3AF"/>
<path d="M300.09 308.398C300.09 319.318 305.691 340.438 311.559 351.358C317.694 362.878 329.297 373.678 340.766 378.598C351.969 383.278 368.106 384.118 380.909 380.638C391.312 377.758 403.448 371.638 413.184 364.318C420.519 358.798 432.122 347.278 432.122 345.598C432.122 342.718 427.32 344.878 420.385 350.758C398.514 369.358 382.11 376.798 363.438 376.918C349.969 377.038 340.766 373.558 329.964 364.558C317.694 354.118 311.426 340.918 305.424 311.878C304.624 308.158 303.157 304.078 302.09 302.878C300.357 300.838 300.223 301.438 300.09 308.398Z" fill="#9CA3AF"/>
<path d="M908.5 314.041C905.966 314.881 902.898 321.001 902.898 325.081C902.898 330.121 909.433 334.801 916.368 334.801C925.971 334.801 932.239 330.241 932.239 323.401C932.239 320.161 928.104 317.641 927.171 320.161C926.904 321.121 925.571 320.881 923.303 319.201C921.436 317.881 919.036 316.801 918.102 316.801C917.035 316.801 916.235 315.961 916.235 315.001C916.235 313.201 912.101 312.721 908.5 314.041Z" fill="#9CA3AF"/>
<path d="M807.544 323.039C805.41 331.799 797.809 341.999 793.408 341.999C789.94 341.999 786.072 336.839 784.205 329.999C783.005 325.439 782.071 323.999 780.071 323.999C776.47 323.999 776.737 330.239 780.738 337.919C786.072 348.239 793.674 350.759 801.543 344.879C806.744 340.919 811.945 331.679 813.146 324.599C813.812 319.679 813.679 319.199 811.145 319.199C809.145 319.199 808.211 320.279 807.544 323.039Z" fill="#9CA3AF"/>
<path d="M764.999 326.641C764.599 328.201 763.665 332.401 762.865 336.121C760.998 344.521 756.33 353.281 753.263 353.761C750.329 354.241 746.061 348.121 744.861 341.761C744.194 338.401 743.26 337.201 741.393 337.201C737.792 337.201 738.059 343.441 742.193 351.361C751.396 369.241 766.866 358.081 770.334 331.201C771.134 324.361 771 324.001 768.333 324.001C766.599 324.001 765.399 324.961 764.999 326.641Z" fill="#9CA3AF"/>
<path d="M385.31 347.64C383.176 352.68 384.243 355.8 388.378 356.16C393.312 356.64 397.18 351.6 395.046 347.4C392.912 343.2 387.177 343.32 385.31 347.64Z" fill="#9CA3AF"/>
<path d="M221.403 362.399C154.453 375.479 71.2333 431.519 22.4216 496.319C3.21698 521.639 0.816406 528.719 0.816406 556.799C0.816406 585.719 6.41775 615.119 16.9536 642.599C25.0889 663.479 27.2228 665.999 37.0918 665.999C42.8265 665.999 42.6931 665.879 47.2276 678.599L49.3614 684.479L44.0268 689.399L38.6922 694.199L39.4924 690.119C40.826 684.479 37.7586 685.559 33.0908 692.519C27.7562 700.319 27.2228 703.679 30.6903 706.799C37.0918 712.559 53.0956 707.639 71.5001 694.439C88.4375 682.319 105.375 660.839 107.642 648.839C108.309 644.879 108.042 644.399 105.508 644.399C103.374 644.399 101.907 645.839 99.6402 650.639L96.5728 656.759L91.7716 648.479C86.1703 638.759 81.1024 626.399 76.7013 611.879C73.7673 601.919 73.7673 601.559 76.1679 600.239C77.5015 599.399 81.3691 593.879 84.7032 587.879L90.838 576.959L95.9059 586.439C107.242 607.319 125.113 625.319 147.518 638.759C172.458 653.639 189.795 659.279 211.134 659.399C219.136 659.399 223.937 659.879 223.537 660.599C223.27 661.199 221.003 669.359 218.335 678.599C207.933 714.959 199.397 758.279 194.596 799.199C188.995 846.599 190.062 943.199 196.063 943.199C198.597 943.199 198.864 936.719 197.397 907.439C193.529 828.599 205.932 740.039 232.872 655.439C245.542 615.839 270.214 564.599 292.487 531.479C300.355 519.959 307.157 506.879 306.49 504.959C305.69 503.039 295.421 515.519 285.685 530.039C275.549 544.919 255.011 582.959 245.409 604.199C240.874 614.279 235.806 623.639 233.806 625.439C231.805 627.359 226.871 629.879 222.87 631.319C216.202 633.479 214.468 633.599 205.132 632.519C185.261 630.119 169.124 623.519 152.72 611.159C136.982 599.159 121.379 581.039 111.243 562.439L106.308 553.439L112.577 544.319C116.044 539.279 122.712 530.759 127.514 525.359C135.249 516.599 138.316 509.999 134.849 509.999C128.047 509.999 74.8342 587.039 74.7008 597.239C74.5675 602.759 72.0335 594.719 69.3662 580.199C65.8987 560.879 65.8987 560.879 63.3648 562.799C57.7634 566.999 65.4986 605.639 77.5015 633.119C81.5025 642.479 82.5694 646.199 81.5025 647.159C80.4355 648.119 80.0354 648.119 80.0354 647.039C80.0354 646.199 76.3012 647.759 71.9002 650.519C61.8978 656.519 51.8954 659.879 40.5593 660.839L32.0239 661.559L27.4895 652.679C19.4876 636.959 11.8857 610.559 7.88477 584.399C5.75093 570.359 5.75093 542.159 7.88477 533.399C14.1529 506.879 62.2979 453.359 111.11 418.319C144.851 394.199 186.594 374.759 220.069 367.559C235.539 364.319 262.479 364.559 278.483 368.279C285.285 369.839 291.153 370.799 291.553 370.439C292.887 369.239 279.817 363.959 270.615 361.919C258.878 359.279 236.073 359.519 221.403 362.399ZM89.2377 655.439C94.3055 662.759 94.0388 663.599 84.8366 672.839C79.3686 678.359 61.631 691.199 59.6305 691.199C58.2969 691.199 48.0278 668.279 48.0278 665.279C48.0278 665.159 50.1616 664.679 52.6955 664.319C58.4303 663.359 77.2348 654.959 80.7023 651.719C82.1693 650.399 83.7697 649.319 84.1698 649.319C84.5699 649.199 86.9704 651.959 89.2377 655.439Z" fill="#9CA3AF"/>
<path d="M765.936 360.958C762.735 362.758 755.8 383.038 755.133 392.518C754.599 400.918 754.866 401.758 757.934 405.118C762.335 409.678 770.737 410.038 777.138 405.838L781.273 403.198L785.54 410.038C791.142 418.918 807.012 432.838 817.014 437.638C838.086 447.718 858.491 447.598 880.23 437.278C885.164 434.998 892.633 430.318 896.767 426.958C909.037 417.118 920.773 400.078 919.973 393.238C919.572 389.638 919.172 390.118 912.904 400.198C887.565 441.118 840.087 451.438 807.012 423.118C797.41 414.838 785.007 399.598 786.741 398.038C787.541 397.318 788.208 395.638 788.208 394.318C788.208 392.278 787.274 392.758 782.606 396.838C776.338 402.358 768.203 405.958 764.869 404.878C758.734 402.718 758.734 392.758 764.869 375.958C770.603 360.238 770.737 358.198 765.936 360.958Z" fill="#9CA3AF"/>
<path d="M288.22 378.12C283.552 390.12 290.22 416.04 300.89 427.56C311.025 438.6 323.562 441.12 332.631 434.04L337.699 430.2L339.566 415.44C341.566 398.76 341.166 396 337.298 399.12C334.098 401.64 332.097 408.12 332.097 415.44C332.097 422.52 328.896 426 322.228 426C316.493 426 310.092 422.04 303.824 414.6C296.622 406.08 294.755 400.08 294.755 386.16C294.755 375.36 294.488 374.4 292.221 374.4C290.621 374.4 289.154 375.72 288.22 378.12Z" fill="#9CA3AF"/>
<path d="M532.277 400.8C517.473 402.84 503.47 409.56 493.467 419.64C490.133 422.88 481.064 434.28 473.196 444.84C458.126 465.12 446.389 477.12 437.587 481.08C427.585 485.76 423.317 494.16 424.518 507C426.651 529.56 447.59 549.12 471.329 550.56C478.397 551.04 479.197 550.8 477.464 549.36C476.397 548.4 472.129 546.72 468.128 545.64C440.255 538.08 425.851 515.64 434.787 493.92C437.054 488.64 438.654 486.84 443.189 484.44C452.124 479.64 463.86 467.52 478.13 448.32C485.332 438.48 494.801 427.08 499.069 423C513.339 409.2 531.077 403.68 551.748 406.56C570.953 409.32 586.957 418.08 601.493 433.8C606.028 438.72 610.162 442.8 610.829 442.8C612.696 442.8 609.495 435.72 604.828 429C590.958 409.32 559.483 397.08 532.277 400.8Z" fill="#9CA3AF"/>
<path d="M967.582 401.761C954.378 405.841 937.308 416.641 924.771 428.761C912.902 440.041 903.566 457.561 908.101 460.081C908.634 460.441 911.301 456.841 913.969 452.041C920.37 440.521 928.906 431.281 941.175 422.401C952.245 414.361 964.114 408.481 973.983 406.081C979.318 404.881 981.318 404.881 985.853 406.321C1003.86 411.961 1020.66 425.401 1030 441.241C1035.33 450.481 1038.93 452.521 1038.93 446.521C1038.93 437.881 1024.53 420.121 1009.99 410.761C993.455 400.201 981.185 397.561 967.582 401.761Z" fill="#9CA3AF"/>
<path d="M809.278 401.638C803.677 402.958 808.345 412.078 814.079 411.358C817.68 410.878 818.614 405.478 815.546 402.718C813.279 400.678 813.146 400.678 809.278 401.638Z" fill="#9CA3AF"/>
<path d="M351.035 421.922C356.769 430.682 353.969 461.642 344.1 497.042C334.097 532.802 319.16 575.642 310.758 591.962C305.957 601.562 304.223 603.602 280.484 626.762C257.812 648.722 247.01 660.002 239.141 669.602C230.606 680.162 227.672 686.282 232.739 683.042C233.54 682.562 239.008 676.802 245.009 670.202C257.412 656.282 267.815 645.722 283.952 630.602C308.224 607.922 311.692 603.962 316.76 593.042C329.563 565.802 348.634 506.882 354.769 476.402C360.103 449.522 359.97 429.602 354.369 422.282C350.234 416.762 347.434 416.402 351.035 421.922Z" fill="#9CA3AF"/>
<path d="M651.907 421.801C637.237 425.161 624.968 432.121 623.5 438.121C622.167 443.521 623.367 443.641 628.968 438.601C643.639 425.401 670.845 421.921 689.65 430.921C718.723 444.961 730.326 481.201 716.99 516.481C714.322 523.321 712.188 529.321 712.188 529.801C712.188 530.161 713.522 530.401 715.256 530.161C722.058 529.321 729.526 507.481 729.526 488.401C729.526 463.801 717.79 441.001 699.385 429.481C686.716 421.681 666.711 418.441 651.907 421.801Z" fill="#9CA3AF"/>
<path d="M537.61 432.122C524.141 434.522 510.537 443.522 504.936 453.962C503.069 457.442 499.735 466.442 497.601 474.242C495.467 481.922 492.666 489.842 491.466 491.882C490.399 493.922 489.999 495.602 490.666 495.602C493.066 495.602 498.534 485.642 502.135 474.602C509.204 453.722 515.605 445.682 530.142 439.562C536.944 436.682 539.878 436.202 549.48 436.202C559.749 436.202 561.75 436.682 571.352 440.762C577.087 443.162 582.155 444.962 582.555 444.602C583.888 443.522 577.62 438.482 571.619 435.842C561.616 431.282 549.613 429.962 537.61 432.122Z" fill="#9CA3AF"/>
<path d="M962.914 438.362C962.914 440.402 976.251 450.242 978.118 449.642C983.986 447.962 974.383 436.802 967.048 436.802C964.514 436.802 962.914 437.402 962.914 438.362Z" fill="#9CA3AF"/>
<path d="M550.416 445.679C543.881 447.839 530.945 455.519 530.011 457.799C528.278 461.759 530.545 461.999 535.479 458.279C541.614 453.959 552.017 449.519 558.818 448.319C565.887 447.239 572.022 449.399 578.957 455.519C582.424 458.519 585.892 460.919 586.825 460.559C588.959 459.959 583.358 452.879 577.089 448.319C572.955 445.319 570.688 444.599 563.753 444.359C558.952 444.119 553.35 444.719 550.416 445.679Z" fill="#9CA3AF"/>
<path d="M1061.07 466.08C1094.41 481.08 1110.55 489.6 1133.09 504.6C1184.57 538.92 1225.38 580.2 1245.78 618.48C1258.85 643.08 1260.59 659.52 1252.45 681.48C1247.52 694.68 1243.38 702.24 1228.31 725.4C1221.78 735.36 1216.04 745.08 1215.51 747L1214.58 750.48L1218.58 747.84C1227.51 742.08 1251.12 705.96 1258.72 686.28C1269.26 659.16 1266.99 639.48 1249.65 609.96C1228.31 573.36 1194.04 539.16 1143.63 504C1105.08 477 1052.54 452.52 1033.07 452.4C1031.6 452.4 1044.14 458.52 1061.07 466.08Z" fill="#9CA3AF"/>
<path d="M291.286 455.399C290.886 456.359 291.019 457.799 291.553 458.519C292.22 459.599 291.82 459.719 290.353 459.239C287.018 458.159 287.418 463.439 290.753 466.199C297.021 471.239 305.556 462.959 300.888 456.599C298.488 453.239 292.486 452.519 291.286 455.399Z" fill="#9CA3AF"/>
<path d="M154.721 460.56C149.92 463.68 143.252 467.76 139.784 469.44C128.181 475.2 112.711 486.48 97.3739 500.4C74.7018 520.8 62.9656 535.92 60.565 547.44C59.8982 551.52 60.0316 552 62.4321 552C64.566 552 66.4331 549.84 70.4341 542.04C76.3021 530.88 84.4374 521.52 101.108 507.12C116.979 493.32 126.181 486.24 143.518 474.48C160.056 463.2 165.39 458.88 165.39 456.48C165.39 453.84 164.057 454.44 154.721 460.56Z" fill="#9CA3AF"/>
<path d="M935.973 455.761C931.839 456.481 933.439 459.361 939.308 461.761C942.375 463.081 947.043 466.081 949.443 468.481C951.977 470.881 954.645 472.801 955.178 472.801C956.645 472.801 956.512 467.041 954.911 464.401C952.111 459.601 941.175 454.681 935.973 455.761Z" fill="#9CA3AF"/>
<path d="M1003.19 459.599C991.054 464.759 981.852 470.399 971.983 478.679C962.914 486.119 963.981 487.319 973.317 480.239C984.653 471.479 992.655 466.919 1005.19 462.119C1015.33 458.279 1018.53 455.999 1015.33 455.159C1014.79 455.039 1009.19 456.959 1003.19 459.599Z" fill="#9CA3AF"/>
<path d="M632.168 472.439C632.301 484.319 640.17 503.279 648.572 511.439C652.84 515.639 657.507 517.439 657.507 514.919C657.507 514.199 654.973 511.199 651.906 507.959C644.704 500.399 638.169 487.799 636.036 477.479C634.168 468.119 632.168 465.479 632.168 472.439Z" fill="#9CA3AF"/>
<path d="M908.902 469.201C907.569 471.121 909.169 472.081 916.104 473.881C920.639 475.081 924.64 477.721 933.708 486.121C940.777 492.481 946.645 496.801 948.245 496.801C949.712 496.801 950.913 496.201 950.913 495.481C950.913 492.961 935.442 478.441 927.707 473.761C919.705 468.721 910.636 466.561 908.902 469.201Z" fill="#9CA3AF"/>
<path d="M278.084 480.241C272.216 484.321 274.35 490.801 281.685 490.801C286.619 490.801 289.953 486.361 288.22 482.161C286.486 478.081 282.218 477.241 278.084 480.241Z" fill="#9CA3AF"/>
<path d="M592.691 486.84C585.889 502.2 580.955 509.16 569.752 519.48C551.481 536.16 536.944 542.88 510.271 546.72C501.602 548.04 494.667 549.72 492.933 550.92L490.133 552.96L494 553.92C503.069 555.96 536.544 548.52 552.815 540.72C571.752 531.84 595.758 502.92 597.759 486.6C598.425 481.44 595.091 481.56 592.691 486.84Z" fill="#9CA3AF"/>
<path d="M606.429 484.441C604.429 486.121 605.629 495.961 608.83 503.401C611.897 510.961 612.031 511.201 609.363 511.201C602.295 511.201 590.159 518.881 591.626 522.481C592.959 525.721 596.427 525.721 601.495 522.601C604.295 520.921 608.563 519.241 611.097 518.881C615.498 518.161 616.032 518.521 623.9 526.921C632.836 536.641 636.57 539.521 653.374 549.841C668.444 559.081 671.645 559.561 680.847 553.921C689.649 548.401 695.784 547.321 701.385 550.321C709.654 554.761 711.921 566.281 706.587 576.001C703.252 581.881 696.984 586.201 689.649 587.881C686.982 588.361 682.581 589.321 679.78 589.921C672.845 591.361 672.979 593.281 679.914 593.761C693.517 594.601 708.587 586.921 712.855 576.601C716.456 568.321 715.255 556.081 710.321 550.201C702.586 541.201 691.783 540.361 678.98 547.921L671.778 552.241L666.31 550.081C658.442 546.961 630.168 521.281 621.633 509.401C617.899 504.121 613.498 496.201 612.031 491.641C609.363 483.961 608.296 482.641 606.429 484.441Z" fill="#9CA3AF"/>
<path d="M993.587 502.798C992.787 504.238 989.853 507.598 987.319 510.118C982.785 514.678 982.651 515.038 984.785 516.958C986.786 518.758 987.319 518.758 990.386 517.198C992.387 516.238 995.721 513.118 997.988 510.238C1001.32 506.158 1001.86 504.598 1000.79 503.038C998.655 500.038 995.321 499.918 993.587 502.798Z" fill="#9CA3AF"/>
<path d="M1091.88 503.641C1088.28 506.881 1097.21 514.801 1104.55 514.801C1107.48 514.801 1108.28 514.201 1108.28 512.041C1108.28 510.121 1106.55 508.561 1101.61 506.041C1094.55 502.681 1093.35 502.321 1091.88 503.641Z" fill="#9CA3AF"/>
<path d="M948.244 505.32C948.244 505.68 952.111 513.48 956.779 522.72C972.916 554.76 988.253 591.84 999.589 626.76L1004.52 642.12L1001.19 648.96C996.255 659.16 992.654 672.84 994.522 674.52C995.588 675.48 997.456 673.08 1001.72 664.8C1006.79 654.96 1007.59 654.12 1008.66 656.64C1010.66 661.44 1022.79 709.8 1026.26 726.96C1041.33 802.44 1042.53 878.64 1029.46 944.04L1028 951.6H936.374H844.886L844.752 940.44C844.352 921.12 836.884 882.84 827.415 851.64C801.408 766.08 752.73 696.96 701.118 672.6C693.249 668.76 676.979 664.92 675.245 666.48C674.845 666.72 680.179 669.48 687.114 672.48C704.852 680.16 715.121 686.64 729.391 699C749.529 716.4 764.333 735 781.937 764.52C808.877 810 830.882 877.92 836.75 934.2C837.684 942.72 838.217 950.16 837.951 950.76C837.684 951.24 812.744 951.6 782.604 951.6H727.924L728.724 948.84C730.858 942.12 732.459 876.48 731.658 826.2C730.725 766.68 729.124 740.52 725.79 731.4C723.656 725.76 723.123 725.28 716.588 723.36C698.717 717.96 656.307 715.32 576.821 714.36C492.001 713.4 412.782 716.76 399.445 721.68C395.578 723.24 394.911 724.08 393.977 729.24C392.777 736.8 394.244 821.88 396.244 858.12L397.845 886.44L392.91 893.28C382.641 907.8 373.839 926.04 373.306 934.2C373.039 940.44 373.439 942 375.306 942C376.373 942 377.973 939 379.307 933.84C381.974 924.72 392.377 902.04 395.978 897.72C398.378 894.84 398.378 894.96 399.445 907.92C399.979 915.12 401.446 927.12 402.913 934.56C404.246 942.12 405.447 948.72 405.447 949.2C405.447 949.8 346.766 949.92 275.149 949.56C184.327 949.08 138.316 949.32 123.512 950.28C100.973 951.72 85.7697 953.64 84.7028 955.2C83.3692 957.12 125.246 957.96 188.728 957.12C224.736 956.64 399.312 956.88 576.821 957.6C999.456 959.16 1085.61 959.16 1177.63 957.72C1249.12 956.52 1264.59 955.8 1260.72 953.64C1255.92 950.88 1232.18 950.16 1174.3 950.64C1115.48 951.24 1113.22 951.24 1118.02 949.2C1121.75 947.64 1128.42 947.04 1145.49 946.44C1170.56 945.6 1181.1 943.92 1197.64 938.28C1211.77 933.48 1222.44 933.12 1230.98 936.96C1235.51 938.88 1237.11 939.24 1238.05 938.04C1238.58 937.32 1238.85 930.96 1238.45 924C1236.71 892.32 1216.44 806.88 1196.3 746.64C1186.97 718.68 1167.23 667.44 1158.29 648C1144.96 619.08 1129.22 594 1124.15 594C1123.49 594 1127.35 601.68 1132.69 611.04C1138.02 620.52 1145.09 633.84 1148.56 640.8C1156.83 657.84 1170.96 692.04 1170.96 694.92C1170.96 698.4 1148.16 718.44 1136.42 725.28C1113.62 738.6 1094.95 744.12 1071.61 744.36C1063.6 744.48 1052.4 743.88 1046.93 742.92L1036.8 741.36L1032.4 720.12C1024.8 683.88 1008.52 629.04 994.388 592.2C980.518 555.6 961.714 518.16 953.045 509.4C950.511 506.76 948.377 504.96 948.244 505.32ZM602.827 721.2C668.577 723 710.987 726.72 717.255 731.16C718.989 732.36 719.522 736.8 717.922 736.8C717.255 736.8 710.853 735.72 703.518 734.52C666.043 727.92 617.097 725.4 545.48 726.36C464.394 727.44 410.381 731.88 406.78 738C401.846 746.16 405.18 814.44 415.449 914.88C417.316 932.52 418.783 947.76 418.783 948.72C418.783 949.8 417.183 950.4 414.115 950.4C410.114 950.4 409.448 950.04 409.448 947.64C409.448 946.08 408.247 926.76 406.78 904.68C405.447 882.6 403.579 851.88 402.646 836.4C401.046 806.52 400.245 729.12 401.579 727.92C404.38 725.4 439.722 722.64 488.133 721.32C536.011 720 557.483 719.88 602.827 721.2ZM580.955 816C587.624 819 592.692 825.24 594.959 833.16C596.292 838.32 596.159 839.28 593.225 844.56C587.357 854.76 577.088 858.6 564.818 855.12C551.882 851.52 543.346 839.16 546.681 828.96C551.082 815.88 566.952 809.88 580.955 816Z" fill="#9CA3AF"/>
<path d="M564.418 556.801C563.085 558.841 561.351 559.201 553.749 559.201C548.815 559.201 541.746 558.481 537.879 557.521C530.543 555.721 529.477 555.961 529.477 559.321C529.477 560.881 530.81 561.721 534.144 562.321C538.545 563.041 538.812 563.401 539.612 568.921C540.679 576.361 544.147 579.361 549.348 577.561L553.082 576.361L547.748 585.961C543.48 593.401 542.146 597.361 541.746 603.121C541.213 610.081 541.479 610.921 544.68 613.561C552.015 619.801 564.152 618.841 578.422 610.921C589.224 605.041 584.023 600.841 573.087 606.481C564.018 611.161 557.083 612.601 552.149 610.801C544.147 607.801 545.08 602.881 558.95 578.161C564.285 568.681 568.153 560.041 568.153 558.001C568.153 553.801 566.819 553.441 564.418 556.801ZM558.817 566.041C558.684 566.641 557.75 568.321 556.683 570.001C555.616 571.681 554.949 572.041 555.349 570.841C555.75 569.641 556.15 567.841 556.15 566.881C556.15 565.921 556.816 565.201 557.483 565.201C558.283 565.201 558.817 565.561 558.817 566.041Z" fill="#9CA3AF"/>
<path d="M590.824 559.2C590.824 560.64 592.158 561.72 594.825 562.2C598.426 562.92 598.826 563.52 598.826 567.48C598.826 572.76 602.027 576 607.095 576C611.229 576 613.63 573.6 615.497 567.72C616.697 564 617.631 563.28 621.365 562.8C626.033 562.2 628.433 559.56 625.232 558.72C624.299 558.48 616.164 557.88 607.228 557.52C591.891 556.92 590.824 557.04 590.824 559.2Z" fill="#9CA3AF"/>
<path d="M500.671 566.641C503.605 595.201 524.41 637.201 545.615 657.001L553.351 664.321L548.149 667.201C545.215 668.881 542.815 670.921 542.815 671.761C542.815 672.721 544.682 676.681 547.082 680.641C552.95 690.481 565.62 702.001 575.489 706.321C582.558 709.321 584.958 709.801 595.494 709.801C604.563 709.801 609.631 709.081 616.432 707.041C632.303 702.121 650.574 690.121 660.843 677.761C667.245 669.961 668.578 666.601 664.311 667.801C662.977 668.161 657.642 667.201 652.574 665.641L643.372 662.881L650.441 654.601C659.243 644.161 664.177 635.881 669.378 622.441C673.379 612.241 674.713 603.601 672.446 603.601C669.912 603.601 666.978 608.401 660.976 622.441C653.508 639.721 647.506 648.601 636.437 657.961C622.434 669.841 601.896 676.201 586.825 673.321C553.884 666.961 522.01 627.001 507.473 573.601C504.272 561.721 502.672 558.001 501.205 558.001C500.271 558.001 500.004 560.881 500.671 566.641Z" fill="#9CA3AF"/>
<path d="M269.415 576.84C269.415 577.44 268.481 581.4 267.415 585.84C266.214 591.36 263.814 596.16 260.079 601.08C253.545 609.96 252.478 612 255.012 612C258.346 612 267.815 598.92 269.282 592.32C271.682 580.68 272.082 576 270.749 576C270.082 576 269.415 576.36 269.415 576.84Z" fill="#9CA3AF"/>
<path d="M1059.2 580.8C1054.54 585.72 1054 589.44 1058 590.16C1062.27 590.88 1071.61 581.4 1070.14 577.92C1068.81 574.68 1063.87 576 1059.2 580.8Z" fill="#9CA3AF"/>
<path d="M1197.24 588.84C1194.44 591.24 1196.71 593.88 1202.97 595.8C1210.04 597.96 1212.31 597.48 1212.31 594C1212.31 592.44 1210.44 591.24 1206.04 589.92C1198.97 587.76 1198.44 587.64 1197.24 588.84Z" fill="#9CA3AF"/>
<path d="M977.583 594.72C977.583 595.08 973.715 608.52 968.914 624.48C964.246 640.56 959.445 658.32 958.245 664.08C956.511 673.44 956.511 675 958.378 680.16C961.846 689.4 967.714 698.52 976.649 707.88C985.051 717 1003.19 732 1005.59 732C1009.46 732 1005.46 726.96 992.52 715.44C977.05 701.64 969.848 692.88 964.78 681.36C961.446 674.16 961.446 674.16 963.58 663.84C964.78 658.08 967.581 647.16 969.714 639.6C980.25 603.96 982.251 594 978.917 594C978.25 594 977.583 594.36 977.583 594.72Z" fill="#9CA3AF"/>
<path d="M1161.09 608.162C1160.83 608.642 1163.76 611.402 1167.63 614.162C1176.43 620.162 1188.3 633.482 1197.64 647.642C1201.5 653.402 1206.17 659.882 1207.91 662.042L1210.97 665.882L1206.44 681.842C1203.91 690.602 1201.1 699.722 1200.3 702.002C1198.57 707.282 1198.57 711.602 1200.3 711.602C1202.17 711.602 1203.24 708.962 1211.77 682.802C1219.64 659.042 1222.18 646.082 1218.84 647.042C1217.78 647.402 1216.17 650.162 1215.24 653.282L1213.37 659.042L1202.97 644.762C1185.77 621.242 1164.83 602.882 1161.09 608.162Z" fill="#9CA3AF"/>
<path d="M600.427 635.158C596.026 638.038 593.226 638.998 588.424 638.998C583.09 639.118 582.156 639.478 582.156 641.518C582.156 643.438 583.223 643.918 588.691 644.158C594.026 644.518 596.293 643.918 602.294 640.558C607.629 637.678 609.496 635.998 609.229 634.318C608.696 630.838 606.695 630.958 600.427 635.158Z" fill="#9CA3AF"/>
<path d="M977.983 640.32C976.916 642.84 981.717 648.48 985.452 648.96C989.053 649.44 989.186 646.56 985.452 641.88C982.518 638.04 979.317 637.32 977.983 640.32Z" fill="#9CA3AF"/>
<path d="M1106.55 651.24C1104.28 653.16 1106.15 656.04 1111.75 659.04C1118.42 662.76 1120.29 663.12 1122.69 660.96C1125.22 658.68 1124.69 657.96 1118.42 654C1112.69 650.52 1108.42 649.56 1106.55 651.24Z" fill="#9CA3AF"/>
<path d="M121.379 662.4C121.379 664.44 150.453 700.2 160.588 710.64C169.524 719.88 179.259 727.08 180.993 725.64C181.927 724.68 177.126 718.44 167.39 708C163.389 703.68 155.12 694.2 148.852 687C134.849 670.44 125.647 661.2 123.246 661.2C122.179 661.2 121.379 661.8 121.379 662.4Z" fill="#9CA3AF"/>
<path d="M1230.45 671.76C1229.11 673.68 1234.31 684.6 1236.71 684.96C1240.18 685.56 1240.85 682.08 1238.31 676.2C1236.85 672.48 1235.38 670.8 1233.65 670.8C1232.31 670.8 1230.85 671.28 1230.45 671.76Z" fill="#9CA3AF"/>
<path d="M523.343 683.16C509.339 692.4 493.469 705.48 493.469 707.88C493.469 711.96 495.336 711.6 501.471 706.2C504.938 703.08 514.274 696.24 522.276 690.84C536.279 681.36 540.547 676.8 535.212 676.8C533.878 676.92 528.544 679.68 523.343 683.16Z" fill="#9CA3AF"/>
<path d="M1056.27 686.761C1050.54 696.481 1056.14 699.481 1062.94 690.481C1067.61 684.481 1067.47 681.601 1062.54 681.601C1060.14 681.601 1058.54 682.921 1056.27 686.761Z" fill="#9CA3AF"/>
<path d="M669.378 690.839C666.978 693.359 651.507 702.359 645.906 704.279C641.771 705.719 639.771 709.199 642.838 709.199C645.372 709.199 664.977 699.839 669.245 696.599C671.645 694.799 673.512 692.399 673.512 691.079C673.512 688.319 671.779 688.199 669.378 690.839Z" fill="#9CA3AF"/>
<path d="M537.48 692.161C537.48 694.081 551.084 706.801 553.084 706.801C555.885 706.801 554.951 705.481 547.083 697.921C540.415 691.681 537.48 689.881 537.48 692.161Z" fill="#9CA3AF"/>
<path d="M124.578 704.04C119.511 707.76 111.242 714.36 106.041 718.56L96.7051 726.24L93.371 722.28C88.5698 716.52 81.6348 710.4 80.0344 710.4C77.5005 710.4 78.7008 712.92 85.369 721.32L91.9039 729.84L77.1004 742.8L62.2968 755.76L50.5607 744.84C44.1591 738.84 38.4244 734.16 38.0243 734.64C37.4909 735.12 41.0917 739.92 46.0262 745.44C59.3628 760.2 59.2294 759.24 49.7605 768.84C40.6916 778.08 31.7561 790.08 32.9564 791.28C33.4899 791.76 40.2915 786.36 48.1601 779.28L62.4302 766.44L70.5655 780.72C74.9665 788.52 80.5679 798.12 82.8351 801.84L86.9694 808.68L73.6329 821.64C54.2949 840.36 43.2256 853.2 44.9593 854.76C46.293 855.96 59.6295 844.68 75.3666 828.96L90.7036 813.72L96.1716 819C99.239 822 102.306 824.4 102.973 824.4C103.64 824.4 102.306 821.4 99.9059 817.56C94.838 809.64 94.3045 811.08 108.441 795.48C117.777 785.04 124.712 775.44 123.645 774.48C123.245 774.12 116.31 780.6 108.041 788.88C99.9059 797.16 92.9709 804 92.7041 804C92.4374 804 88.5698 797.88 84.0354 790.44C79.3676 783.12 73.6329 773.88 71.0989 769.92C65.8977 761.64 64.9641 763.56 82.5684 747.36L95.2381 735.72L102.44 747.72C109.775 759.72 117.777 769.2 119.244 767.88C120.444 766.92 114.176 753.96 106.441 741.6L100.039 731.4L118.977 714.36C138.448 696.84 141.116 691.8 124.578 704.04Z" fill="#9CA3AF"/>
<path d="M27.6213 720.241C22.5534 729.961 18.6858 751.801 16.0185 786.001C14.2847 808.801 14.2847 874.801 16.1518 901.921C17.4855 922.681 20.5529 948.961 21.8866 950.041C22.2867 950.401 23.2202 950.281 24.1538 949.801C25.7542 948.841 25.3541 936.961 22.6867 913.201C22.0199 906.961 20.953 878.281 20.5529 849.601C19.486 784.081 21.7532 755.281 31.2221 718.441C32.1557 714.961 29.7551 716.161 27.6213 720.241Z" fill="#9CA3AF"/>
<path d="M196.065 721.2C189.797 724.2 174.327 737.64 174.994 739.44C175.394 740.28 176.327 741 177.127 741C179.395 741 198.466 727.44 201 724.08C204.067 719.88 201.667 718.56 196.065 721.2Z" fill="#9CA3AF"/>
<path d="M144.852 740.639C139.117 748.799 129.248 803.879 125.247 850.199C122.98 877.319 122.98 934.439 125.247 939.239C126.181 941.399 127.514 943.199 128.181 943.199C128.848 943.199 129.382 932.039 129.382 918.239C129.382 866.759 138.184 786.719 148.053 748.199C149.653 741.959 149.653 737.999 148.053 737.999C147.386 737.999 145.919 739.199 144.852 740.639Z" fill="#9CA3AF"/>
<path d="M162.723 769.802C162.723 772.442 168.991 783.242 172.058 786.002C175.259 788.882 178.727 789.122 178.727 786.482C178.727 783.482 166.99 768.002 164.723 768.002C163.656 768.002 162.723 768.842 162.723 769.802Z" fill="#9CA3AF"/>
<path d="M154.722 811.68C155.388 813.24 157.656 817.8 159.79 821.64L163.79 828.72L157.256 835.8C152.188 841.44 151.121 843.12 152.855 843.36C154.055 843.6 157.522 841.56 160.723 838.8L166.324 833.76L170.592 839.88C172.859 843.24 175.26 846 176.06 846C177.794 846 176.594 840.84 173.393 834.72C170.859 830.04 170.859 830.04 173.926 826.32C180.461 818.4 179.261 815.16 171.926 820.68L167.391 824.16L161.657 816.48C155.922 808.68 152.454 806.28 154.722 811.68Z" fill="#9CA3AF"/>
<path d="M22.2876 843.839C35.6241 859.439 48.0271 874.798 56.9626 887.038L68.0319 902.398L57.8961 914.039C46.5601 927.119 43.2259 932.158 44.9597 933.718C46.16 934.798 63.4975 919.679 68.9654 912.719L71.7661 909.119L79.768 916.799C88.5702 925.079 92.7045 926.039 85.236 918.119C82.7021 915.599 79.6347 911.519 78.301 909.359L75.9004 905.159L84.5692 894.718C93.638 883.918 99.6395 874.798 97.639 874.798C96.0386 874.798 91.7709 878.518 80.9683 889.558L71.7661 898.918L63.0974 887.158C48.6939 867.959 25.4883 842.399 22.4209 842.399C21.4874 842.399 21.4874 842.879 22.2876 843.839Z" fill="#9CA3AF"/>
<path d="M150.318 867.838C151.919 875.278 164.855 890.158 167.522 887.638C169.256 886.198 165.255 880.078 157.52 872.398C150.852 865.678 149.785 865.078 150.318 867.838Z" fill="#9CA3AF"/>
<path d="M791.005 905.52C767.4 917.28 740.86 937.68 741.793 943.32C742.46 947.76 745.128 947.16 749.395 941.52C754.597 934.68 768.867 924.36 787.805 913.8C797.407 908.4 802.741 904.68 802.875 903.24C802.875 900.24 800.608 900.72 791.005 905.52Z" fill="#9CA3AF"/>
</svg>
