<svg
                                width="1197"
                                height="701"
                                viewBox="0 0 1197 701"
                                fill="none"
                                xmlns="http://www.w3.org/2000/svg"
                            >
                                <path
                                    d="M434.069 2.46796C425.535 6.73463 417.669 20.3346 409.802 44.7346C402.335 67.668 398.069 84.7346 394.335 106.735C391.002 125.535 389.802 149.668 392.202 149.668C393.269 149.668 394.469 144.068 401.002 107.001C406.735 74.068 416.335 41.4013 425.669 22.7346C432.069 10.068 444.069 2.46796 446.335 9.66796C447.535 13.5346 445.002 28.7346 437.002 66.3346C433.002 84.6013 429.002 103.801 428.202 109.001C425.935 121.935 425.802 145.001 428.069 147.268C430.335 149.535 432.069 146.868 432.869 139.668C436.602 107.401 438.735 93.668 444.469 65.668C448.202 46.868 451.402 27.268 451.935 19.5346C452.602 7.00129 452.469 5.80129 449.802 3.13463C446.469 -0.198706 440.202 -0.465372 434.069 2.46796Z"
                                    fill="#9CA3AF"
                                />
                                <path
                                    d="M336.6 14.0652C331.933 18.9985 330.6 30.1985 331.533 54.3318C333.133 97.9318 341.133 145.665 347.8 150.999C350.6 153.399 350.333 144.199 346.867 126.999C342.467 104.465 340.467 86.4652 339.533 62.9985C338.2 29.9318 340.467 15.5318 346.333 20.3318C352.867 25.6652 359.533 46.9985 365.133 80.3318C372.467 123.932 373.933 131.399 376.6 137.265C378.067 140.332 380.067 143.132 381.267 143.532C383.667 144.465 383.133 137.932 378.2 107.665C367.667 43.6652 361.4 21.5318 351.533 13.7985C346.733 10.0652 340.2 10.1985 336.6 14.0652Z"
                                    fill="#9CA3AF"
                                />
                                <path
                                    d="M995.004 88.4661C979.67 96.8661 971.404 108.199 962.604 132.466C956.737 148.466 952.87 156.199 945.27 166.466C937.537 176.999 935.804 180.333 937.804 180.333C941.67 180.333 948.737 174.066 954.07 165.933C961.67 154.466 961.804 154.199 967.67 137.666C974.204 119.266 977.937 112.066 984.737 104.733C990.47 98.4661 1003.8 90.9995 1009.14 90.9995C1016.6 90.9995 1016.47 98.9995 1008.87 111.666C995.27 134.199 984.337 167.666 982.337 192.999C981.67 201.399 982.204 207.933 985.004 223.666C987.004 234.599 988.87 251.266 989.27 260.466C989.937 275.399 989.67 278.599 987.004 287.133C985.404 292.599 983.004 298.999 981.67 301.266C977.004 309.266 984.87 305.399 990.737 296.866C999.537 284.066 999.804 256.333 991.67 217.799C987.937 199.666 989.537 181.666 997.27 156.999C1001.54 143.266 1009 125.799 1014.6 116.066C1019.54 107.666 1023 98.7328 1023 94.7328C1023 93.2661 1021.27 90.3328 1019.14 88.1995C1013.67 82.7328 1005.14 82.8661 995.004 88.4661Z"
                                    fill="#9CA3AF"
                                />
                                <path
                                    d="M857.936 131.001C850.736 132.468 844.069 136.601 841.803 140.868C840.069 144.068 840.336 152.601 842.336 158.601C843.136 161.268 842.869 161.668 839.936 161.668C834.203 161.668 827.269 165.801 825.003 170.468C822.203 176.335 822.469 184.735 825.669 191.001L828.336 196.335H825.669C818.603 196.335 812.336 204.468 812.336 213.535C812.336 217.535 813.536 220.335 817.136 225.135C820.203 229.001 821.403 231.801 820.469 232.068C818.203 232.868 815.003 239.668 815.003 243.668C815.003 249.268 819.536 254.335 827.936 258.068C836.069 261.668 855.403 265.668 864.869 265.668C875.403 265.668 883.003 259.401 883.003 250.601C883.003 248.068 883.669 247.001 885.403 247.001C892.069 247.001 901.669 235.801 901.669 227.935C901.669 225.401 902.736 224.201 906.736 222.601C909.403 221.535 912.736 219.401 914.069 217.935C917.269 214.335 919.003 206.468 917.669 201.668C916.736 198.468 917.136 197.535 919.536 195.801C921.269 194.735 923.669 191.668 924.869 189.135C926.869 184.868 926.869 183.668 925.403 179.401C922.336 170.868 909.269 160.335 901.669 160.335C899.403 160.335 899.003 160.868 899.669 163.268C900.203 165.001 902.203 167.535 904.203 169.001C911.536 174.601 917.669 180.735 917.669 182.468C917.669 183.535 916.336 185.668 914.869 187.135C910.203 191.801 899.136 190.068 883.936 182.468C861.936 171.535 849.269 159.401 849.136 149.268C849.003 143.935 849.269 143.535 855.003 140.601C869.269 133.535 890.603 139.535 916.869 158.335C920.336 160.868 924.736 163.001 926.603 163.001H929.803L927.003 158.868C923.536 154.201 913.269 145.801 904.736 140.868C891.136 132.735 870.336 128.468 857.936 131.001ZM852.469 170.468C861.003 179.801 882.469 192.201 895.936 195.668C904.736 197.935 904.869 198.068 907.003 204.868C908.469 209.401 908.336 210.201 906.069 212.468C898.469 220.201 873.536 217.135 851.936 205.935C834.469 196.868 826.203 185.268 830.336 175.535C831.403 173.001 832.336 171.001 832.603 171.001C832.869 171.001 835.403 170.068 838.336 169.001C846.069 166.335 848.736 166.601 852.469 170.468ZM851.403 212.735C864.336 219.001 872.603 221.668 882.603 222.601C890.069 223.268 891.003 223.668 891.003 226.201C891.003 227.801 889.803 230.868 888.336 233.268C883.936 240.601 871.136 242.335 853.403 237.801C834.736 233.001 821.803 224.335 819.536 215.401C818.336 211.001 820.869 206.868 827.003 202.601L831.669 199.535L836.736 203.801C839.669 206.201 846.203 210.201 851.403 212.735ZM835.669 238.868C844.869 243.001 860.736 247.001 868.603 247.001C874.736 247.001 875.003 247.135 875.003 250.735C875.003 257.801 871.269 259.535 858.469 258.468C838.469 257.001 821.669 250.068 821.669 243.535C821.669 241.535 827.003 234.735 828.203 235.268C828.603 235.535 832.069 237.135 835.669 238.868Z"
                                    fill="#9CA3AF"
                                />
                                <path
                                    d="M353 154.601C336.867 166.334 315.8 197.667 307.8 221.667C301.267 241.401 301 254.467 307 270.601C314.467 290.601 341.267 336.867 352.733 349.267C357.267 354.201 361.667 356.734 361.667 354.334C361.667 352.467 355.133 340.867 344.333 323.667C318.733 282.601 311 266.067 309.933 249.667C309.4 241.001 309.933 237.934 313.533 227.001C321.267 204.067 337.533 177.401 352.067 164.201C362.333 154.734 367.667 155.401 388.733 168.867C392.6 171.267 401.133 176.067 407.8 179.401C421.933 186.467 424.067 188.334 420.6 191.267C413.267 197.801 392.067 198.601 376.333 193.134C358.867 186.867 357.267 187.134 363.667 194.734C367.267 199.001 381.933 205.667 388.067 205.667C395.133 205.667 395.267 207.267 388.867 216.867C381.133 228.467 375 241.267 375 246.067C375 248.467 376.467 251.267 379.133 253.934C382.867 257.801 383.667 257.934 390.867 257.267C400.467 256.467 408.2 252.601 417.267 243.934C424.6 237.001 433.667 223.667 433.667 219.801C433.667 215.667 430.067 217.801 421.933 226.867C408.6 241.934 390.867 251.801 384.2 248.201C379.933 245.934 381.8 240.201 391.133 226.734C395.533 220.334 399.933 213.001 401 210.601C402.6 206.734 403.667 205.934 408.6 205.134C411.8 204.601 416.867 202.734 419.933 200.867C429.667 195.267 432.067 189.001 427 182.601L424.333 179.267L428.733 173.534C434.867 165.401 443.933 158.734 448.067 159.267C454.467 160.067 456.467 165.134 456.733 180.334C457 191.667 457.4 194.334 459.267 195.534C460.467 196.201 462.067 196.467 462.6 195.801C463.133 195.267 463.667 188.067 463.667 179.934C463.533 163.934 461.933 158.601 456.067 154.467C452.2 151.801 445.267 151.801 439.667 154.467C435.133 156.601 424.2 167.401 420.2 173.667L417.933 177.001L411.533 173.934C407.933 172.201 397.933 166.601 389.267 161.267C375.533 153.134 372.467 151.801 365.933 151.267C359.267 150.867 357.667 151.267 353 154.601Z"
                                    fill="#9CA3AF"
                                />
                                <path
                                    d="M673.268 158.735C669.401 163.002 668.201 173.802 669.668 192.868C671.668 222.602 678.201 260.335 682.734 269.002L684.734 273.002L686.068 269.268C687.001 266.468 686.468 260.735 684.334 248.602C677.268 207.135 675.001 184.468 676.868 171.935C677.934 164.735 680.601 163.668 683.534 169.402C685.934 174.068 693.001 202.602 701.668 243.402C708.068 273.668 710.601 281.802 722.734 313.668C728.734 329.268 732.334 344.735 732.334 354.868C732.334 358.468 731.134 371.802 729.534 384.602C726.601 409.135 725.801 430.868 727.534 436.202C729.534 442.202 730.734 436.335 735.801 395.668C741.668 348.735 741.534 344.202 731.534 315.668C728.201 306.068 723.134 291.668 720.334 283.668C717.534 275.535 711.801 253.135 707.668 233.668C695.401 176.202 692.334 165.402 686.734 159.402C683.268 155.668 676.334 155.268 673.268 158.735Z"
                                    fill="#9CA3AF"
                                />
                                <path
                                    d="M554.469 168.732C547.803 177.399 547.136 191.932 552.336 214.332C555.936 229.932 571.403 272.866 581.403 294.866L584.069 300.732L580.469 303.799C577.003 306.732 577.003 306.866 577.136 325.266C577.269 352.066 583.403 384.466 591.269 399.532C599.269 414.599 628.203 440.732 648.603 451.132C656.069 454.866 667.003 456.466 667.003 453.666C667.003 452.999 662.603 449.932 657.403 446.866C623.936 427.666 602.069 407.132 594.869 388.466C589.403 373.932 585.403 348.466 584.869 324.999C584.336 303.132 584.469 302.466 586.603 306.999C587.803 309.666 589.269 317.532 589.803 324.999C591.403 344.066 594.469 356.332 597.669 356.332C598.069 356.332 598.203 350.199 598.069 342.599C597.136 311.266 597.403 312.866 589.403 294.999C561.803 232.999 551.403 193.399 558.336 176.732C560.069 172.599 560.603 172.199 562.603 173.799C565.403 176.199 572.469 191.399 584.336 221.132C596.603 251.799 611.669 282.732 619.536 293.399C625.269 301.132 633.803 307.399 635.803 305.266C636.336 304.732 635.003 301.932 632.869 298.866C630.736 295.932 625.803 288.599 621.936 282.599C614.336 270.866 614.469 269.666 623.003 269.666C634.469 269.799 649.136 281.132 657.136 296.599C661.936 305.532 665.003 308.199 667.536 305.666C669.403 303.799 664.736 294.466 655.536 282.199L648.336 272.332L651.936 270.866C660.069 267.799 670.869 274.999 681.003 290.332C686.069 297.932 690.203 299.799 691.669 295.132C692.736 291.532 687.803 284.066 678.469 274.999C669.003 265.666 663.936 262.999 656.336 262.999C649.803 262.999 643.669 266.199 644.869 268.999C645.269 270.066 643.403 269.399 640.736 267.532C632.203 261.799 622.469 260.199 615.936 263.666L612.203 265.666L607.003 254.599C604.203 248.599 597.536 233.132 592.336 220.332C570.736 167.132 563.269 157.132 554.469 168.732Z"
                                    fill="#9CA3AF"
                                />
                                <path
                                    d="M67.4013 188.868C64.2013 191.268 61.1347 199.268 62.068 203.001C62.6013 205.001 61.668 205.535 57.0013 206.335C48.868 207.535 43.0013 211.935 38.6013 219.935C35.0013 226.735 35.0013 226.735 30.468 225.401C13.8013 220.201 3.93467 245.268 1.00133 299.668C0.201335 314.468 0.334668 316.468 3.53467 326.468C9.268 344.468 23.4013 365.668 43.5347 386.735C54.7347 398.335 68.6013 409.668 71.8013 409.668C76.068 409.668 72.868 405.401 59.268 392.735C27.668 363.268 8.33467 330.601 8.33467 306.601C8.33467 295.801 11.8013 266.468 14.3347 255.268C17.268 242.868 20.868 235.268 25.0013 233.401C27.9347 232.068 28.868 232.335 32.2013 235.535C42.6013 245.535 49.5347 282.335 42.468 289.401C39.5347 292.335 35.1347 289.001 26.868 277.668C23.1347 272.468 19.8013 268.335 19.4013 268.335C17.8013 268.335 20.6013 279.535 23.668 285.668C28.7347 295.668 37.268 300.601 44.468 297.535C48.868 295.801 52.3347 290.335 52.3347 285.001C52.3347 280.468 54.6013 280.735 55.668 285.535C57.1347 292.201 63.668 301.001 68.868 303.535C72.7347 305.268 73.668 306.468 72.868 308.068C72.3347 309.268 71.668 311.935 71.268 313.935C70.3347 320.068 74.2013 318.468 80.6013 309.935C86.868 301.668 90.7347 299.935 109.001 296.468C114.201 295.535 118.868 293.535 122.335 291.001C125.268 288.735 130.335 285.135 133.668 283.001C141.668 277.801 143.001 276.601 143.001 274.335C143.001 271.801 138.601 271.801 133.801 274.335L130.068 276.201L129.268 266.468C128.601 256.335 125.668 248.735 122.201 247.401C119.001 246.201 118.468 247.935 120.201 253.801C122.335 260.868 122.201 276.735 120.068 281.401C117.668 286.468 110.468 289.668 101.535 289.668H94.068L93.268 274.601C92.468 257.935 88.868 243.668 84.2013 239.535L81.268 237.001L82.068 243.668C82.468 247.268 83.668 254.468 84.868 259.668C87.1347 269.535 87.668 287.801 85.9347 290.735C84.3347 293.135 76.7347 295.001 72.2013 294.068C67.268 293.135 65.1347 290.201 61.5347 279.401C60.068 274.735 57.268 269.135 55.5347 267.001C53.668 264.868 51.268 259.668 50.2013 255.401C49.1347 251.135 46.468 243.935 44.468 239.535C40.6013 231.401 40.6013 231.268 43.0013 226.201C46.3347 218.735 51.1347 214.735 57.9347 214.068C63.5347 213.401 63.8013 213.668 70.868 221.801C79.8013 231.935 93.668 239.268 105.935 240.068C114.468 240.735 131.401 236.868 130.601 234.468C130.335 233.668 124.601 232.601 117.535 231.935C102.335 230.735 93.9347 228.335 84.6013 222.201C69.0013 211.935 64.068 192.735 77.8013 195.668C80.2013 196.201 88.2013 198.868 95.5347 201.668C103.001 204.468 116.868 208.335 126.335 210.201C136.201 212.201 145.135 214.735 147.001 216.201C154.201 221.535 163.668 257.001 165.135 285.001C166.201 301.935 164.735 308.335 154.201 335.668C150.868 344.468 145.668 357.801 142.868 365.268C137.401 379.535 135.001 391.001 137.268 391.001C140.068 391.001 165.401 328.868 170.335 309.801C172.868 299.801 172.868 287.268 170.335 267.401C165.401 229.935 156.735 208.868 145.135 206.335C143.535 205.935 135.135 204.201 126.468 202.201C117.668 200.335 104.201 196.335 96.468 193.535C79.5347 187.135 71.5347 185.935 67.4013 188.868Z"
                                    fill="#9CA3AF"
                                />
                                <path
                                    d="M467.803 196.733C451.803 205.4 427.27 232.467 417.003 252.867C411.403 263.933 410.603 274.6 415.003 279C420.603 284.6 434.736 281.533 446.07 272.2C452.203 267.133 467.27 247.133 466.203 245.533C464.603 242.867 461.136 244.867 451.003 254.2C437.536 266.867 429.136 272.6 423.936 272.867C419.803 273 419.67 272.867 419.936 267.933C420.87 252.6 452.336 213.133 471.27 203.533C483.27 197.4 487.936 200.333 489.136 214.6C490.203 226.467 491.003 231 492.203 231C495.803 231 497.803 209.667 494.87 202.067C490.736 191.133 481.403 189.267 467.803 196.733Z"
                                    fill="#9CA3AF"
                                />
                                <path
                                    d="M356.734 201.268C353.934 209.535 346.067 226.601 342.867 231.668C339.134 237.668 337.934 241.668 340.067 241.668C344.067 241.668 361.667 209.668 361.667 202.468C361.667 198.468 358.067 197.668 356.734 201.268Z"
                                    fill="#9CA3AF"
                                />
                                <path
                                    d="M482.336 253.935C481.936 254.868 480.202 260.468 478.336 266.335C473.802 280.335 462.336 303.535 452.869 317.668C448.736 323.935 440.069 334.735 433.536 341.802C422.602 353.668 418.069 360.335 419.936 362.068C421.402 363.668 427.669 358.068 440.869 343.002C461.002 320.068 475.936 295.802 484.202 271.935C489.136 257.802 489.536 252.335 485.669 252.335C484.202 252.335 482.602 253.135 482.336 253.935Z"
                                    fill="#9CA3AF"
                                />
                                <path
                                    d="M852.735 273.132C852.335 274.198 852.601 276.465 853.268 278.065C855.801 283.665 877.801 305.532 886.735 311.532C908.201 325.798 940.335 335.398 940.335 327.665C940.335 326.598 936.468 325.132 930.201 323.665C909.401 318.998 885.268 303.665 868.201 284.065C856.335 270.332 854.335 268.865 852.735 273.132Z"
                                    fill="#9CA3AF"
                                />
                                <path
                                    d="M993.669 316.466C993.669 324.733 1023.8 383.4 1037.14 401.266L1040.34 405.533L1035.27 409.666C1028.6 415.266 1008.87 424.6 995.003 428.866C983.403 432.333 962.603 435.666 959.669 434.6C957.536 433.666 954.603 423 949.003 394.466C942.069 359.799 935.269 341.666 928.869 341.666C926.203 341.666 926.469 344.333 930.469 352.999C934.469 361.666 936.203 367.533 941.669 391.666C946.336 412.066 946.469 412.333 943.136 412.333C939.403 412.333 927.803 422.066 925.269 427.266C921.003 436.2 925.536 440.466 941.536 443.133C968.203 447.533 1025.27 431.266 1057.54 409.933C1069.54 401.933 1073.14 392.6 1066.07 387C1062.87 384.466 1061.14 384.2 1051 384.733C1044.74 385 1038.47 385.533 1037 385.8C1034.87 386.2 1032.87 383.4 1025.4 369.666C1020.47 360.466 1012.34 344.199 1007.54 333.266C1000.74 318.333 998.069 313.666 996.069 313.666C994.469 313.666 993.669 314.599 993.669 316.466ZM947.003 418.733C947.003 419.4 944.336 421.666 941.003 424.066C933.803 429.133 933.003 427.533 940.069 421.8C945.136 417.666 947.003 416.866 947.003 418.733Z"
                                    fill="#9CA3AF"
                                />
                                <path
                                    d="M425.934 382.065C423.534 393.932 421.401 407.665 420.867 412.598C420.067 421.265 419.934 421.398 416.867 420.332C403.134 414.998 363.401 411.398 348.867 413.932L343.401 414.998L347.134 399.398C351.134 383.398 351.934 373.265 349.667 369.665C349.001 368.598 348.201 368.065 347.934 368.332C347.534 368.732 344.201 381.265 340.467 396.332C336.601 411.398 329.401 438.065 324.334 455.665C305.934 519.665 292.334 578.998 287.667 614.998C285.267 633.132 284.334 659.532 286.067 661.132C287.934 663.132 289.534 658.598 290.334 648.332C290.734 642.865 291.667 635.265 292.467 631.665C293.134 627.932 295.134 615.665 297.001 604.332C301.267 578.332 308.867 543.932 318.201 509.265C326.201 479.798 342.067 427.398 343.667 425.932C344.201 425.398 354.867 424.998 367.401 425.132C401.401 425.265 426.734 430.732 444.067 441.798C446.867 443.532 447.001 444.598 447.001 457.665C447.001 480.332 439.134 546.598 429.667 604.332C419.534 666.332 417.401 688.999 421.667 691.665C423.134 692.599 424.867 684.332 429.534 652.198C431.801 637.265 436.201 608.465 439.534 588.332C450.067 523.398 455.267 480.865 455.534 456.465L455.667 440.065L451.267 436.332C448.867 434.332 442.334 430.598 437.001 428.198C427.267 423.798 427.134 423.532 427.001 418.732C427.001 416.065 428.201 405.932 429.801 396.065C433.934 370.198 434.334 362.198 431.934 361.265C430.334 360.732 429.267 364.598 425.934 382.065Z"
                                    fill="#9CA3AF"
                                />
                                <path
                                    d="M1077.8 404.201C1079.67 406.734 1080.74 410.734 1081.27 416.468C1082.07 426.334 1083.27 430.201 1097.54 464.734C1109 492.334 1122.2 530.068 1127.8 550.734C1131.67 565.134 1133.14 567.801 1135.8 565.534C1137 564.601 1138.6 564.734 1141.54 566.201C1143.67 567.401 1146.2 568.334 1147 568.334C1147.8 568.334 1152.6 570.734 1157.4 573.534C1172.07 582.068 1191 585.934 1194.87 581.134C1198.34 577.001 1193.8 573.668 1184.74 573.668C1179.27 573.668 1165.4 568.468 1157.4 563.534C1153.94 561.401 1147.54 556.068 1143 551.668C1134.74 543.934 1134.6 543.534 1128.74 525.668C1122.2 506.068 1113.4 483.534 1103.8 461.801C1090.74 432.334 1086.07 418.334 1085.67 406.868C1085.67 405.001 1079.94 400.334 1077.54 400.334C1075 400.334 1075 400.334 1077.8 404.201Z"
                                    fill="#9CA3AF"
                                />
                                <path
                                    d="M133.669 412.334C133.669 418.068 140.336 462.734 143.803 479.401C144.869 485.134 146.869 496.734 148.203 505.134L150.469 520.468L143.803 523.934C121.936 535.001 100.203 540.334 77.0026 540.334H63.2693L63.8026 534.601C64.0693 531.534 64.8693 517.268 65.5359 503.001C69.1359 434.201 68.8693 422.601 63.5359 416.468L60.4693 413.001L61.1359 429.668C61.9359 445.401 61.4026 455.668 57.5359 514.601L55.8026 538.868L49.1359 539.268L42.3359 539.801L47.6693 542.201C55.6693 545.934 85.4026 546.734 105.669 543.668C137.403 539.001 168.336 528.734 169.403 522.468C169.803 520.468 169.269 520.068 166.069 520.734C164.069 521.134 161.003 521.801 159.403 522.334C156.736 523.134 156.336 522.868 156.336 520.068C156.336 518.334 154.869 507.268 153.003 495.534C151.136 483.934 147.803 462.334 145.669 447.668C140.336 411.134 139.403 407.001 136.203 407.001C134.069 407.001 133.669 407.934 133.669 412.334Z"
                                    fill="#9CA3AF"
                                />
                                <path
                                    d="M364.334 432.335C362.867 433.268 364.601 433.668 370.067 433.668C374.334 433.668 382.067 434.602 387.267 435.802C393.934 437.268 397.001 437.535 398.067 436.468C399.801 434.735 398.601 434.335 385.267 432.468C372.601 430.735 367.001 430.602 364.334 432.335Z"
                                    fill="#9CA3AF"
                                />
                                <path
                                    d="M1041.27 441.532C1024.47 449.799 1002.6 457.265 982.601 461.532C964.601 465.399 960.601 468.332 973.268 468.332C982.468 468.332 1004.33 463.532 1021.4 457.799C1040.73 451.265 1060.33 440.732 1060.33 436.732C1060.33 433.665 1054.6 435.132 1041.27 441.532Z"
                                    fill="#9CA3AF"
                                />
                                <path
                                    d="M1005.67 443.8C1005.67 444.867 1006.33 445.4 1007 445C1007.8 444.6 1008.33 443.667 1008.33 442.867C1008.33 442.2 1007.8 441.667 1007 441.667C1006.33 441.667 1005.67 442.6 1005.67 443.8Z"
                                    fill="#9CA3AF"
                                />
                                <path
                                    d="M920.867 448.602C921.267 451.268 923.533 454.602 926.333 457.002L931 461.002L929 468.335C925.533 481.002 928.867 493.268 944.6 525.802C965.133 568.335 987.4 605.402 1000.33 618.602C1013.27 631.802 1039.27 644.202 1058.47 646.335C1065.8 647.135 1075.13 645.402 1073.27 643.535C1072.87 643.135 1068.33 642.202 1063.13 641.535C1051.8 640.202 1037 634.468 1025.13 627.002C1009.67 617.268 998.067 602.202 976.067 563.668C961.133 537.402 956.333 527.802 948.467 507.935C940.2 487.402 937.667 477.668 937.667 467.002C937.667 459.402 937.267 458.468 933.4 454.868C931 452.735 927.533 449.402 925.667 447.668C921.133 443.268 919.8 443.535 920.867 448.602Z"
                                    fill="#9CA3AF"
                                />
                                <path
                                    d="M983 450.999C983 451.665 983.667 452.332 984.333 452.332C985.133 452.332 985.667 451.665 985.667 450.999C985.667 450.199 985.133 449.665 984.333 449.665C983.667 449.665 983 450.199 983 450.999Z"
                                    fill="#9CA3AF"
                                />
                                <path
                                    d="M957.003 455C956.07 456.6 957.27 459 959.137 459C960.737 459 960.737 455.4 959.137 454.333C958.47 453.933 957.537 454.2 957.003 455Z"
                                    fill="#9CA3AF"
                                />
                                <path
                                    d="M404.336 459.134C404.336 459.8 403.803 460.2 403.136 459.667C401.536 458.734 399.136 463 399.936 465.267C400.336 466.2 401.403 467 402.47 467C403.536 467 404.336 467.667 404.336 468.334C404.336 470.067 409.403 467 410.203 464.867C410.603 463.934 409.803 461.934 408.47 460.467C405.803 457.4 404.336 456.867 404.336 459.134Z"
                                    fill="#9CA3AF"
                                />
                                <path
                                    d="M365.67 460.733C365.67 462.066 364.87 462.999 363.804 462.733C362.737 462.466 361.804 462.866 361.937 463.533C361.937 464.199 361.137 465.266 360.07 465.933C358.737 466.999 358.737 467.399 360.07 467.933C360.87 468.199 361.404 469.133 360.87 469.799C360.47 470.466 361.404 470.999 362.87 470.999C364.604 470.999 365.67 471.933 365.67 473.266C365.67 475.266 365.804 475.266 367.404 472.999C368.604 471.533 369.937 470.999 371.004 471.666C372.337 472.466 372.604 472.199 371.937 470.599C371.537 469.399 371.804 468.333 372.47 468.066C374.204 467.533 372.604 462.999 370.737 462.999C369.937 462.999 368.47 461.933 367.537 460.599C365.804 458.466 365.804 458.466 365.67 460.733Z"
                                    fill="#9CA3AF"
                                />
                                <path
                                    d="M733.134 469.933C733.534 473.799 736.334 483.933 739.268 492.333C742.201 500.733 745.001 509.666 745.668 511.933C746.734 516.466 746.601 516.599 741.001 516.866C738.734 516.999 738.334 517.933 738.467 522.599C738.467 526.066 739.534 529.399 741.001 530.999C743.534 533.799 749.001 534.466 752.334 532.466C753.801 531.399 756.334 535.266 764.734 551.399C770.601 562.599 779.668 579.399 785.134 588.866C790.601 598.199 795.001 606.199 795.001 606.333C795.001 607.799 770.868 622.599 761.001 626.999C747.001 633.533 738.601 635.799 724.601 636.999L713.934 637.933L709.934 630.199C701.667 613.799 691.267 588.466 687.001 574.333C682.867 560.599 680.067 554.999 677.401 554.999C671.001 554.999 697.934 626.333 715.534 655.933C724.334 670.599 729.134 675.799 731.801 673.666C732.867 672.733 733.401 670.999 733.001 669.799C732.467 667.799 733.534 667.666 741.401 668.066C755.134 668.866 777.668 664.199 783.934 659.266C789.668 654.733 795.001 652.866 805.668 651.666C809.668 651.133 814.868 649.666 817.268 648.333C819.801 646.866 821.934 646.333 822.334 647.133C824.068 649.933 827.001 648.199 827.001 644.466C827.001 641.799 823.534 635.266 816.334 624.466C810.468 615.533 805.668 607.799 805.668 607.133C805.668 606.599 806.868 604.999 808.334 603.666C811.934 600.333 811.801 596.333 808.068 596.333C806.468 596.333 804.201 597.266 803.001 598.333C801.001 600.066 799.934 598.599 790.734 582.599C773.001 551.666 759.268 525.133 758.468 520.199C757.934 517.399 756.468 513.799 755.001 512.066C752.201 508.333 745.934 493.399 741.934 480.066C736.601 462.866 731.534 457.133 733.134 469.933Z"
                                    fill="#9CA3AF"
                                />
                                <path
                                    d="M659.534 470.6C659.934 472.733 661.534 481.533 663.001 490.333C664.467 499.133 666.334 507.666 667.001 509.266C668.601 513 674.467 513.666 673.001 509.933C672.601 508.733 671.001 500.2 669.667 491C667.001 472.2 665.134 467 661.267 467C659.134 467 658.867 467.666 659.534 470.6Z"
                                    fill="#9CA3AF"
                                />
                                <path
                                    d="M763.669 472.867C762.069 474.067 761.535 475.533 762.069 477.533C763.002 481.4 761.935 484.333 759.535 484.333C757.535 484.333 757.002 488.067 758.735 490.467C760.335 492.867 765.269 495 769.402 495C774.335 495 778.869 490.2 779.935 483.933C780.602 479.8 780.069 478.6 776.602 475C772.202 470.733 767.669 469.933 763.669 472.867Z"
                                    fill="#9CA3AF"
                                />
                                <path
                                    d="M646.736 511.268C637.136 519.135 638.603 533.668 649.003 533.668C654.47 533.668 657.536 529.935 658.603 522.068C659.67 513.401 652.336 506.735 646.736 511.268Z"
                                    fill="#9CA3AF"
                                />
                                <path
                                    d="M414.335 513.133C412.735 514.733 412.602 515.667 413.802 517.133C414.602 518.2 416.069 519 417.002 519C417.935 519 419.402 518.2 420.202 517.133C421.402 515.667 421.269 514.733 419.669 513.133C418.469 511.933 417.269 511 417.002 511C416.735 511 415.535 511.933 414.335 513.133Z"
                                    fill="#9CA3AF"
                                />
                                <path
                                    d="M335.002 519.801C335.002 521.268 334.202 521.668 332.335 521.001C330.335 520.335 329.935 520.601 330.469 522.201C331.002 523.401 330.602 524.335 329.669 524.335C328.469 524.335 328.335 524.735 329.535 526.068C330.335 527.135 330.602 528.335 330.069 528.735C329.669 529.268 330.469 529.668 332.069 529.668C333.669 529.668 335.002 530.468 335.002 531.268C335.135 532.468 335.669 532.335 336.735 530.868C337.669 529.668 339.135 529.001 340.202 529.401C341.269 529.801 341.669 529.401 341.135 528.601C340.735 527.801 341.135 526.868 341.935 526.468C343.269 525.801 343.269 525.535 342.069 524.868C341.135 524.468 340.869 523.135 341.269 522.068C341.935 520.468 341.535 520.068 339.935 520.735C338.469 521.268 337.669 520.868 337.669 519.668C337.669 518.601 337.135 517.668 336.335 517.668C335.669 517.668 335.002 518.601 335.002 519.801Z"
                                    fill="#9CA3AF"
                                />
                                <path
                                    d="M671.803 522.333C671.403 523.4 671.403 525.267 671.803 526.333C672.869 529 671.003 528.867 669.003 526.067C666.603 522.867 664.336 525.133 664.336 530.867C664.336 540.333 672.069 545.533 681.003 542.2C687.269 539.8 688.469 526.467 682.603 522.333C678.869 519.8 672.869 519.8 671.803 522.333Z"
                                    fill="#9CA3AF"
                                />
                                <path
                                    d="M707.935 521.265C707.402 521.665 707.002 523.532 707.002 525.265C707.002 528.465 705.002 529.532 703.935 526.598C703.535 525.398 702.735 525.532 701.002 527.265C699.402 528.732 698.335 532.198 697.935 536.732C697.402 543.398 697.669 544.198 701.135 546.865C706.069 550.732 711.669 549.798 716.735 544.332C721.669 538.732 721.935 528.465 717.002 523.665C713.935 520.465 709.802 519.398 707.935 521.265Z"
                                    fill="#9CA3AF"
                                />
                                <path
                                    d="M175.933 527.8C180.333 535.667 182.067 557 178.6 560.6C175.933 563.267 131.133 578.067 117 581C99 584.867 73.1333 585.133 53.6667 581.8C44.6 580.2 36.4667 578.333 35.6667 577.533C33.6667 575.533 34.4667 556.467 36.8667 549.8C39.6667 542.333 39.5333 540.333 36.6 540.333C33.2667 540.333 29.8 544.333 27.5333 550.6C25.4 556.6 25.1333 575.933 27 581.133C28.2 584.067 28.0667 585 26.4667 585.933C22.6 588.067 21 601.267 21 631.667C21.1333 656.867 21.5333 663.133 24.2 676.333C25.8 684.733 28.2 693.8 29.4 696.333C32.3333 702.333 35.5333 702.467 36.0667 696.6C36.6 691.133 41.6667 688.333 52.6 687.267C59.5333 686.733 61.2667 687.133 69.2667 691.133C77.2667 695.267 79 695.533 90.2 695.533C104.333 695.533 111.933 693.667 117.667 688.867C122.067 685 123.133 685 139.667 688.867C151.4 691.533 159 691.533 168.733 689C178.067 686.6 184.2 682.867 195 672.733C200.733 667.4 204.467 665 206.867 665C211.667 665 211.8 661.267 208.333 641.267C203.533 613.933 195.267 585.533 188.333 572.733C185 566.467 184.733 565.133 185.933 560.067C188.733 547.667 184.2 526.467 177.933 523.133C173 520.467 172.467 521.667 175.933 527.8Z"
                                    fill="#9CA3AF"
                                />
                                <path
                                    d="M53.1342 562.467C52.0676 566.6 53.2676 571 55.4009 571C56.3342 571 57.0009 568.6 57.1342 565C57.2676 558.333 54.6009 556.6 53.1342 562.467Z"
                                    fill="#9CA3AF"
                                />
                                <path
                                    d="M72.4694 562.865C71.4027 564.732 71.536 565.799 73.0027 566.999C74.6027 568.332 75.136 568.065 76.2027 565.532C78.0694 560.332 75.0027 558.065 72.4694 562.865Z"
                                    fill="#9CA3AF"
                                />
                                <path
                                    d="M398.068 564.998C397.268 566.465 396.068 567.531 395.401 567.398C394.868 567.398 394.468 567.798 394.734 568.465C394.868 569.131 394.334 569.665 393.534 569.665C392.468 569.665 392.334 570.198 393.534 571.398C394.334 572.465 394.734 573.531 394.468 573.798C394.068 574.065 395.268 574.998 397.134 575.931C398.868 576.731 400.334 576.865 400.334 576.198C400.334 575.531 401.668 574.998 403.268 574.998C404.868 574.998 405.668 574.598 405.268 574.065C404.734 573.665 405.001 572.465 405.801 571.398C407.001 570.198 406.868 569.665 405.801 569.665C405.001 569.665 404.468 568.865 404.734 567.931C404.868 567.131 403.934 566.465 402.734 566.731C401.534 566.865 400.334 566.065 400.068 564.731C399.668 562.598 399.401 562.598 398.068 564.998Z"
                                    fill="#9CA3AF"
                                />
                                <path
                                    d="M89.668 566.332C89.668 567.399 90.3346 568.332 91.0013 568.332C91.8013 568.332 92.3346 567.399 92.3346 566.332C92.3346 565.265 91.8013 564.332 91.0013 564.332C90.3346 564.332 89.668 565.265 89.668 566.332Z"
                                    fill="#9CA3AF"
                                />
                                <path
                                    d="M328.337 589.799C328.337 590.465 327.804 590.865 327.137 590.465C325.67 589.532 324.204 593.132 325.137 595.532C326.07 597.932 330.204 599.532 330.737 597.799C331.004 597.132 332.07 596.865 333.27 597.265C334.737 597.799 335.137 597.532 334.47 596.599C333.937 595.665 334.204 594.999 335.004 594.999C336.07 594.999 336.07 594.199 335.004 592.332C334.204 590.865 333.004 589.932 332.204 590.332C331.537 590.865 331.004 590.465 331.004 589.799C331.004 588.999 330.47 588.332 329.67 588.332C329.004 588.332 328.337 588.999 328.337 589.799Z"
                                    fill="#9CA3AF"
                                />
                                <path
                                    d="M383.802 640.999C381.135 643.665 381.135 643.665 383.669 646.199C385.935 648.465 389.002 647.799 390.202 644.999C390.469 644.065 389.669 642.199 388.469 640.999C386.202 638.999 385.802 638.999 383.802 640.999Z"
                                    fill="#9CA3AF"
                                />
                            </svg>