<svg width="1114" height="936" viewBox="0 0 1114 936" fill="none" xmlns="http://www.w3.org/2000/svg">
<path d="M491.666 2.26388C475.266 3.19721 445.132 6.66387 424.999 9.86387C421.399 10.5305 412.332 12.5305 405.132 14.5305C372.599 23.3305 349.532 37.3305 346.332 50.3972C344.866 56.2639 348.999 65.0639 356.466 71.8639C368.199 82.3972 396.732 93.9972 411.132 93.9972H415.932L415.799 112.264C415.666 129.864 417.266 139.331 420.332 139.331C422.066 139.331 425.532 84.5305 426.599 42.6639L426.999 21.3305L432.066 20.3972C456.466 16.1305 520.866 11.4639 530.332 13.1972C534.199 13.9972 536.599 16.5305 547.266 31.0639C562.466 51.7305 576.332 67.1972 607.666 98.9305C629.799 121.197 635.666 125.997 641.132 125.997C644.866 125.997 642.866 123.064 630.466 110.264C607.666 86.6639 588.466 63.1972 559.932 24.2639L552.332 13.9972H559.266C582.732 13.9972 637.399 21.0639 688.999 30.7972C710.199 34.7972 728.599 37.9972 729.799 37.9972C731.932 37.9972 732.066 39.9972 731.932 58.9305C731.932 71.9972 732.599 85.9972 734.066 95.9972C735.266 104.797 736.866 117.731 737.666 124.664C738.999 136.797 741.399 143.064 745.266 144.264C747.666 145.064 748.332 136.664 746.999 123.331C746.332 116.397 745.666 108.397 745.666 105.597C745.666 100.797 745.799 100.664 750.732 100.797C755.532 100.797 755.532 100.931 752.332 102.397C749.266 103.864 749.799 103.997 757.132 104.397C779.799 105.464 809.132 92.3972 815.532 78.2639C819.399 69.7305 817.799 64.9305 808.199 55.9972C791.532 40.6639 754.866 26.5305 706.199 16.7972C664.332 8.26387 627.399 4.26388 568.999 1.99721C533.532 0.530543 524.199 0.663876 491.666 2.26388ZM367.799 58.3972C373.666 63.3305 390.999 73.4639 403.932 79.3305C413.932 83.9972 417.932 87.4639 415.932 89.4639C415.532 89.8639 413.799 89.3305 412.066 88.2639C410.466 87.0639 402.999 83.9972 395.666 81.3305C388.332 78.6639 379.666 74.9305 376.332 73.0639C361.799 64.7972 353.932 55.1972 357.666 50.6639C359.266 48.7972 359.666 48.9305 361.532 51.7305C362.732 53.5972 365.532 56.5305 367.799 58.3972Z" fill="#9CA3AF"/>
<path d="M548.332 68.799C510.065 104.399 506.465 108.399 507.265 114.799L507.665 118.266L512.598 114.399C515.265 112.399 523.398 105.732 530.598 99.599C537.798 93.599 546.732 86.1323 550.465 82.9323C558.998 75.999 563.398 69.8656 562.732 65.7323C561.932 59.999 556.465 61.199 548.332 68.799Z" fill="#9CA3AF"/>
<path d="M435.531 148.932C434.064 151.332 439.531 155.332 447.531 157.866C468.864 164.399 498.731 169.066 534.331 171.332C567.264 173.332 650.331 173.066 669.264 170.799C677.931 169.732 694.198 168.132 705.531 167.332C726.198 165.732 737.531 163.599 744.064 159.999C747.398 158.266 746.864 158.132 735.664 158.132C729.131 157.999 714.731 158.932 703.664 159.999C675.264 162.666 610.464 165.066 592.331 163.999C557.264 161.999 516.598 157.732 490.998 153.199C463.798 148.399 437.131 146.266 435.531 148.932Z" fill="#9CA3AF"/>
<path d="M536.198 214.798C519.131 232.398 518.864 232.531 514.064 238.931C503.131 253.198 499.398 263.331 504.731 264.398C507.931 265.065 519.931 255.065 525.131 247.465C527.531 243.998 532.598 236.931 536.464 231.865C546.331 218.798 553.931 201.998 549.931 201.998C549.264 201.998 543.131 207.731 536.198 214.798Z" fill="#9CA3AF"/>
<path d="M612.332 217.598C612.332 224.798 621.665 257.998 626.599 268.131C631.532 278.531 636.465 284.264 639.132 282.664C642.065 280.798 639.799 264.131 635.399 254.931C621.399 225.998 618.732 220.931 615.799 217.331L612.465 213.331L612.332 217.598Z" fill="#9CA3AF"/>
<path d="M573.267 233.067C563.667 254.133 559 280 565 280C568.6 280 573.4 272.4 574.333 264.933C574.867 261.467 575.8 256.933 576.467 254.8C578.067 249.867 578.067 230.4 576.467 229.467C575.8 229.067 574.467 230.667 573.267 233.067Z" fill="#9CA3AF"/>
<path d="M752.334 331.731C746.067 333.865 742.467 340.931 744.334 347.331C745.401 351.198 745.267 352.265 743.001 354.265C737.534 359.331 740.201 372.131 748.734 381.598C754.467 387.998 763.134 392.265 785.401 400.131C812.201 409.465 819.801 413.731 834.734 427.865C851.267 443.465 857.001 445.998 853.801 436.265C851.801 430.131 839.401 416.665 829.134 409.465C818.201 401.598 810.601 397.998 790.201 390.665C761.934 380.398 755.534 376.265 751.001 364.931C748.867 359.331 750.867 356.265 754.601 359.598C755.934 360.798 760.601 363.598 765.001 365.998C769.401 368.531 774.334 371.598 775.801 372.931C780.201 376.798 799.667 384.798 826.867 393.865C840.467 398.398 854.467 403.865 857.934 406.131C865.134 410.798 872.601 419.065 882.867 434.265C886.734 439.865 890.867 445.331 891.934 446.265C893.801 447.865 893.934 447.198 893.401 440.931C892.467 431.198 885.534 418.265 875.134 406.931C861.667 392.531 855.134 388.931 821.801 378.131C803.934 372.265 787.001 365.731 778.201 361.331C763.667 353.998 754.467 347.065 755.401 344.265C756.734 339.998 778.067 342.398 821.001 351.598C855.401 358.931 885.401 367.598 898.734 374.131C906.867 378.131 912.201 381.998 919.401 389.065C935.534 405.065 944.067 420.131 963.667 467.331C1003.67 563.731 1026.73 614.931 1047.13 652.931C1068.33 692.531 1081.8 713.865 1093.8 726.665L1100.2 733.465L1096.87 751.331C1090.07 787.998 1076.33 840.931 1072.33 845.065C1071 846.531 1052.87 822.398 1043.53 806.531C1026.07 776.665 995.667 712.131 977.001 664.665C971.401 650.398 964.467 634.265 961.667 628.665C956.334 618.131 949.267 608.798 947.667 610.131C946.067 611.865 949.801 622.398 967.934 667.998C985.401 711.865 991.001 725.065 1006.6 758.398L1014.07 774.265L1012.33 793.065C1011.4 803.465 1010.47 812.531 1010.33 813.331C1010.07 813.998 1009.8 806.131 1009.8 795.731C1009.67 785.331 1009.13 776.531 1008.33 775.998C1006.47 774.798 1003.4 780.531 1001.8 788.398C999.934 797.331 999.934 837.065 1001.67 850.931C1005.4 878.798 1012.73 897.998 1023 905.731C1028.47 909.998 1029.53 910.265 1037 909.731C1077.8 907.065 1106.33 838.665 1112.33 728.665C1114.6 689.731 1111.13 629.331 1104.87 595.331C1094.73 539.865 1075.67 503.598 1055.27 501.065C1042.87 499.598 1032.07 514.531 1029 537.331L1028.07 543.998L1034.87 532.665C1038.73 526.398 1042.87 520.265 1044.2 518.798C1046.47 516.665 1046.47 517.331 1043.67 526.931C1040.2 538.931 1036.87 559.865 1035.67 577.331C1035.27 583.865 1034.6 592.665 1034.07 596.665L1033.27 603.998L1027.4 591.331C1017.27 569.598 1000.87 531.198 981.001 482.398C954.201 416.798 944.734 398.798 927.934 381.865C910.601 364.265 891.534 355.998 840.334 343.865C795.534 333.331 761.001 328.531 752.334 331.731Z" fill="#9CA3AF"/>
<path d="M41.2659 420.666C25.2659 430.799 11.3992 465.466 4.99924 511.599C-2.06743 562.666 -0.734093 634.133 8.46591 697.333C20.1992 778.399 48.4659 837.066 76.9992 840.133C94.0659 841.866 105.533 823.733 111.799 785.333C115.133 764.799 115.133 727.199 111.799 715.999C107.799 702.933 106.466 709.066 105.533 744.666C104.733 773.599 102.466 794.666 99.1326 803.599C98.5992 805.199 98.3326 796.133 98.7326 783.333C99.2659 762.533 97.6659 724.399 95.5326 707.199L94.7326 700.933L104.866 692.799C116.999 683.199 147.666 662.799 166.333 651.999C173.666 647.733 182.599 642.533 186.199 640.266L192.599 636.266L204.866 638.799C220.599 642.133 248.066 642.133 264.866 638.799C278.599 636.133 294.466 631.333 307.933 625.733C318.466 621.466 319.399 621.599 326.599 628.266C328.733 630.266 339.266 636.399 349.799 641.733C378.599 656.399 401.533 661.066 418.733 655.999C427.399 653.333 433.266 648.533 435.133 641.999C436.466 637.599 436.333 636.266 433.799 631.866C430.066 625.333 423.533 620.666 405.266 611.199L390.733 603.733L404.199 602.933C411.666 602.533 438.866 602.666 464.733 603.199C525.399 604.533 570.733 603.999 582.066 602.133C590.466 600.666 600.333 597.066 600.333 595.466C600.333 595.066 571.933 594.666 537.399 594.666C502.733 594.666 469.133 594.133 462.733 593.599C451.533 592.533 451.133 592.399 449.533 588.266C447.266 582.933 430.199 565.866 417.666 556.533C390.466 536.133 344.999 513.466 316.733 505.999C302.999 502.399 283.266 502.399 265.266 505.999C221.666 514.799 152.733 545.999 96.1992 582.399L88.5992 587.199L87.7992 578.266C82.0659 521.599 72.3326 466.799 63.7992 444.266C61.9326 439.333 60.5992 435.333 60.9992 435.333C61.3992 435.333 64.0659 440.133 67.1326 446.133C76.5992 465.066 83.6659 490.666 86.9992 517.999C87.7992 524.933 90.0659 537.199 91.9326 545.333C94.8659 557.866 95.5326 559.466 96.7326 556.666C98.8659 551.066 99.3992 529.866 97.7992 515.199C93.6659 478.933 80.9992 441.999 67.3992 426.133C58.5992 415.733 51.2659 414.266 41.2659 420.666ZM313.666 514.799C337.133 521.199 374.333 538.399 396.866 553.333C409.133 561.333 428.599 577.066 435.533 584.399L439.399 588.533L435.666 589.466C428.999 591.199 380.466 588.933 365.533 586.266C353.933 584.133 350.199 582.799 344.199 578.799C335.799 573.199 333.666 572.799 333.666 577.199C333.666 585.599 345.666 593.999 385.666 613.466C417.399 629.066 424.333 633.333 421.399 635.999C416.066 641.066 398.599 642.133 382.599 638.533C369.799 635.599 353.399 629.199 335.266 620.133C327.133 615.999 319.533 612.666 318.466 612.666C317.399 612.666 309.666 615.466 301.533 618.799C293.266 622.133 279.933 626.533 271.799 628.399C258.999 631.466 254.066 631.866 234.333 631.866C214.999 631.866 210.066 631.466 200.733 628.933C194.733 627.333 186.999 625.999 183.399 625.999C176.999 626.133 176.999 626.133 179.933 628.533L182.866 630.933L163.933 642.133C138.999 656.799 116.466 671.866 100.333 684.666C80.7326 700.399 48.7326 730.933 38.9992 743.333L30.3326 754.266L28.5992 748.399C23.2659 730.933 12.8659 670.266 13.9326 662.933C14.3326 659.466 38.1992 637.599 64.1992 616.933C103.933 584.933 159.666 552.799 208.999 533.333C259.666 513.333 288.733 508.133 313.666 514.799Z" fill="#9CA3AF"/>
<path d="M755.001 443.599C749.534 445.599 747.534 449.999 748.868 457.333C749.668 461.066 751.934 464.399 757.534 470.133C763.801 476.266 768.601 479.333 782.468 485.999C835.668 511.466 827.934 506.533 851.134 529.866C863.134 541.999 875.001 552.533 879.268 555.066C893.801 563.733 918.334 569.866 930.334 567.866C936.601 566.799 947.934 561.466 946.201 560.266C945.534 559.866 937.801 558.933 929.001 557.999C895.268 554.933 885.934 550.266 859.801 523.599C837.934 501.333 829.134 495.066 805.934 485.066C796.601 481.066 784.868 475.599 779.934 473.066C770.201 467.866 759.001 458.133 759.001 454.666C759.001 450.799 774.068 452.133 799.134 458.533C831.134 466.666 846.201 469.066 865.668 469.199C882.868 469.199 892.334 467.466 892.334 463.999C892.334 460.799 884.201 459.333 866.468 459.333C845.401 459.333 831.134 457.199 800.601 449.333C774.868 442.666 762.068 441.066 755.001 443.599Z" fill="#9CA3AF"/>
<path d="M640.466 524.267C631.4 532.267 619.4 554.8 618.066 566C617.266 572.8 617.4 572.934 620.066 571.467C623.266 569.734 641.8 545.467 647.133 536C655.266 521.467 651.266 514.534 640.466 524.267Z" fill="#9CA3AF"/>
<path d="M575 615.864C571 619.064 556.467 632.398 542.867 645.464C529.267 658.664 501.134 685.464 480.2 705.331C459.4 725.064 437.267 746.531 431.134 752.931L419.934 764.531L415.4 756.931C411.134 749.998 402.6 737.464 393 724.264C388.467 717.998 379.667 712.798 377.4 715.064C376.334 716.131 379.4 721.598 387.267 733.598C393.534 742.931 400.6 754.264 403.134 758.664C409.4 769.864 416.067 780.398 417.667 781.331C418.334 781.731 415.267 786.931 410.867 792.931C400.334 807.198 396.067 814.664 396.6 817.998C397 820.664 397.134 820.664 401.667 818.398C404.734 816.798 410.734 810.131 419.667 798.531C448.067 761.198 503.934 699.198 549.667 653.998C571.4 632.531 579.667 623.598 582.2 618.398C584.067 614.531 585.667 611.064 585.667 610.664C585.667 608.664 581.534 610.664 575 615.864Z" fill="#9CA3AF"/>
<path d="M598.6 621.999C595.4 639.465 588.733 718.399 586.2 765.999C583.933 810.265 583.267 873.599 584.867 896.799L585.933 912.265L574.067 914.665C567.667 915.865 556.6 917.465 549.667 917.999C542.733 918.665 529.667 919.865 520.6 920.665L504.2 922.265L497 916.665C493 913.599 476.067 896.932 459.4 879.599C415.533 834.265 413 831.865 404.6 829.332C401.533 828.399 401.533 828.532 403.4 832.265C404.6 834.265 407.267 837.732 409.533 839.865C411.8 842.132 413.667 844.532 413.667 845.465C413.667 846.399 410.2 851.599 405.933 856.932C397.267 867.865 380.2 891.732 377.8 896.399C375.667 900.399 376.467 906.532 379.133 907.065C380.467 907.332 383.133 904.665 386.067 900.399C388.733 896.532 394.6 888.799 399 883.332C403.4 877.865 409.267 870.532 411.933 867.065C415.667 862.399 417.267 861.065 418.867 861.999C420.067 862.532 428.867 870.132 438.467 878.932C448.067 887.599 462.2 900.399 470.067 907.332C477.933 914.265 484.333 920.532 484.333 921.065C484.333 921.732 480.333 921.865 475.4 921.465C470.333 921.065 459.133 920.399 450.333 919.999C423.533 918.665 375.267 914.132 359 911.199C335.667 907.199 309.133 901.732 308.067 900.799C307.533 900.399 306.867 866.932 306.467 826.665C305.667 732.265 303.267 700.665 294.867 667.465C291.267 653.332 286.467 641.999 284.2 641.999C283 641.999 283.8 651.199 286.467 671.599C289.533 695.465 297 817.465 297 845.065C297 846.932 294.733 848.265 287.667 850.532C282.6 852.132 276.867 854.265 275 855.199C272.333 856.399 272.733 855.865 276.333 852.665C278.867 850.399 282.6 847.465 284.733 846.265C286.733 845.065 288.333 843.599 288.333 842.799C288.333 840.399 273.4 843.199 264.6 847.332C247.8 855.199 239 864.665 239 874.932C239 882.532 241.4 886.932 249.533 894.399C278.067 919.999 359.533 935.332 466.2 935.332C548.333 935.332 613.933 922.799 637.4 902.665C647.267 894.132 649.667 885.065 644.2 875.465C639.267 866.532 623.133 857.999 607.133 855.865C600.733 855.065 600.067 855.199 599.4 857.865C599 859.599 597.8 860.665 596.467 860.399C594.6 859.999 594.333 856.932 594.6 833.332C594.867 800.132 598.333 728.132 601.133 695.332C603.533 667.732 604.067 621.065 602.067 613.999C600.867 609.599 600.733 609.865 598.6 621.999Z" fill="#9CA3AF"/>
<path d="M638.733 622.799C636.733 624.799 637.666 628.265 640.733 629.732C642.333 630.665 648.733 632.799 654.866 634.665C672.733 639.999 689.666 638.799 689.666 632.399C689.666 629.465 680.599 625.599 670.999 624.532C654.733 622.532 639.666 621.732 638.733 622.799Z" fill="#9CA3AF"/>
</svg>
